<svg width="161mm" height="181mm" style="clip-rule:evenodd;fill-rule:evenodd;image-rendering:optimizeQuality;shape-rendering:geometricPrecision;text-rendering:geometricPrecision" version="1.1" viewBox="0 0 161 181" xml:space="preserve" xmlns="http://www.w3.org/2000/svg" xmlns:xlink="http://www.w3.org/1999/xlink"><defs><style type="text/css">
    .fil3 {fill:none}
    .fil7 {fill:#FFF212;fill-rule:nonzero}
    .fil0 {fill:#F47E63;fill-rule:nonzero}
    .fil1 {fill:#F9AB6D;fill-rule:nonzero}
    .fil2 {fill:#FFF57C;fill-rule:nonzero}
    .fil4 {fill:url(#a)}
    .fil5 {fill:url(#c)}
    .fil6 {fill:url(#b)}
   </style><radialGradient id="a" cx="35.6" cy="135" r="12.7" gradientUnits="userSpaceOnUse"><stop style="stop-color:#FFF212" offset="0"/><stop style="stop-color:#F58634" offset=".502"/><stop style="stop-color:#ED3237" offset="1"/></radialGradient><radialGradient id="c" cx="128" cy="207" r="12.7" gradientUnits="userSpaceOnUse" xlink:href="#a"/><radialGradient id="b" cx="143" cy="92.7" r="12.7" gradientUnits="userSpaceOnUse" xlink:href="#a"/><radialGradient id="d" cx="35.6" cy="135" r="12.7" gradientUnits="userSpaceOnUse" xlink:href="#a"/></defs><g transform="translate(-24.5 -58.2)"><path class="fil0" d="m39.3 157c5.39-7.39 10.9-13.4 19.9-21.3 9.2-7.9 17.3-13.8 28.8-20.9 12-7.23 21.5-12 33.7-17.1 12.9-5.19 22.2-8 33.2-10.2-4.82 5.07-14.5 15.2-14.5 15.2-7.36 0.517-13.9 1.79-23.3 4.69-9.46 3.09-17.1 6.3-27.1 11.5-10.5 5.59-18.2 10.5-27.4 17.3-9.92 7.48-16.4 13.4-23.4 20.9z" style="fill-opacity:.882;fill-rule:nonzero;fill:#ed1c24"/><path class="fil1" d="m44.5 151c4.74-5.37 9.18-9.73 15.6-15.2 9.14-7.65 17.1-13.3 28.3-20.1 11.6-6.82 20.7-11.3 32.3-16 12.2-4.76 21-7.28 31.3-9.19-2.89 3.04-8.67 9.12-8.67 9.12-8.08 0.832-15.1 2.39-25.2 5.72-10 3.48-18 7-28.5 12.6-10.8 5.92-18.6 11-27.9 18.1-6.91 5.35-11.8 9.65-17.2 15z" style="fill-opacity:.882;fill-rule:nonzero;fill:#f7941e"/><path class="fil2" d="m50.5 145c3.29-3.17 6.39-5.94 10.2-9.1 9.16-7.43 17-12.9 28.1-19.4 11.2-6.41 19.9-10.6 31-14.9 11.5-4.29 19.7-6.5 29.3-8.07l-2.89 3.04c-8.81 1.18-16.4 3.05-27.2 6.85-10.6 3.89-19 7.71-29.8 13.7-11 6.22-18.8 11.5-28.1 18.8-3.94 3.14-7.15 5.89-10.6 9.06z" style="fill-opacity:.882;fill-rule:nonzero;fill:#fbd115"/><path class="fil3" d="m39.3 157c5.77-7.09 13.2-14.2 21.6-21.1 8.42-6.8 18-13.3 28.1-19.1 10.2-5.78 20.5-10.6 30.4-14.3 9.95-3.68 19.6-6.25 28.2-7.46" style="fill:none"/><path class="fil0" d="m145 201c-9.09-0.973-17-2.77-28.4-6.55-11.4-4.02-20.6-8.07-32.5-14.5-12.3-6.8-21.1-12.6-31.7-20.7-10.9-8.56-18-15.2-25.5-23.7 6.8 1.64 20.4 4.92 20.4 4.92 4.13 6.12 8.49 11.1 15.7 17.8 7.4 6.65 14 11.6 23.5 17.7 10.1 6.31 18.2 10.5 28.6 15.1 11.4 4.85 19.8 7.54 29.7 9.81z" style="fill-opacity:.882;fill-rule:nonzero;fill:#ed1c24"/><path class="fil1" d="m137 200c-7.01-1.42-13-3.09-21-5.89-11.2-4.09-20.1-8.13-31.6-14.5-11.7-6.63-20.1-12.3-30-20-10.2-8.18-16.8-14.5-23.6-22.5 4.08 0.984 12.2 2.95 12.2 2.95 4.76 6.58 9.64 11.9 17.6 19 8.03 6.95 15.1 12.1 25.2 18.4 10.5 6.38 18.8 10.6 29.6 15.1 8.08 3.31 14.3 5.41 21.6 7.41z" style="fill-opacity:.882;fill-rule:nonzero;fill:#f7941e"/><path class="fil2" d="m129 197c-4.39-1.26-8.34-2.57-13-4.3-11-4.22-19.7-8.3-30.8-14.6-11.2-6.5-19.1-12-28.4-19.4-9.46-7.81-15.5-13.8-21.6-21.3 1.36 0.328 4.08 0.984 4.08 0.984 5.43 7.04 10.9 12.7 19.5 20.2 8.66 7.23 16.2 12.6 26.8 19 10.9 6.38 19.4 10.6 30.3 15 4.69 1.84 8.68 3.25 13.1 4.63z" style="fill-opacity:.882;fill-rule:nonzero;fill:#fbd115"/><path class="fil3" d="m145 201c-9.02-1.46-18.9-4.27-29.1-8.18-10.1-3.9-20.5-8.9-30.6-14.8-10.1-5.9-19.4-12.4-27.6-19.2-8.16-6.77-15.2-13.8-20.6-20.7" style="fill:none"/><path class="fil4" d="m51.6 137c1.05 6.92-3.57 13.4-10.3 14.4-6.75 1.02-13.1-3.76-14.1-10.7-1.05-6.92 3.57-13.4 10.3-14.4s13.1 3.76 14.1 10.7z" style="fill:url(#d)"/><path class="fil0" d="m133 85.6c3.82 8.17 6.35 15.9 8.87 27.6 2.39 12 3.52 22.1 4.02 35.9 0.345 14.3-0.223 25.2-1.94 38.7-1.97 14.2-4.27 23.9-7.97 34.8-1.97-6.73-5.91-20.2-5.91-20.2 3.33-6.82 5.54-13.3 7.75-23.2 2.06-10 3.05-18.5 3.5-30.1 0.332-12.2-0.126-21.4-1.54-33-1.66-12.4-3.62-20.9-6.77-30.5z" style="fill-opacity:.882;fill-rule:nonzero;fill:#ed1c24"/><path class="fil1" d="m135 93c2.36 6.68 3.99 12.6 5.64 20.9 2.2 11.8 3.2 21.7 3.56 35.1 0.2 13.8-0.435 24.1-2.19 36.9-2 13.4-4.27 22.5-7.88 32.6-1.18-4.04-3.55-12.1-3.55-12.1 3.42-7.6 5.66-14.7 7.84-25.5 2.01-10.7 2.93-19.7 3.25-31.9 0.18-12.6-0.403-22-2-33.7-1.27-8.65-2.62-15-4.66-22.3z" style="fill-opacity:.882;fill-rule:nonzero;fill:#f7941e"/><path class="fil2" d="m138 101c1.14 4.36 2.02 8.38 2.9 13.2 2 11.8 2.87 21.5 3.05 34.6 0.0329 13.2-0.69 23.1-2.52 35.2-2.06 12.5-4.31 20.9-7.85 30.2-0.394-1.35-1.18-4.04-1.18-4.04 3.49-8.43 5.74-16.2 7.88-27.8 1.93-11.4 2.76-20.9 2.92-33.6 7e-3 -12.9-0.714-22.5-2.5-34.3-0.796-4.94-1.61-9.04-2.69-13.5z" style="fill-rule:nonzero;fill:#fbd115"/><path class="fil3" d="m133 85.6c3.37 8.37 6.02 18.3 7.82 29 1.8 10.8 2.76 22.5 2.78 34.4 0.0132 11.9-0.925 23.6-2.72 34.4-1.8 10.8-4.46 20.7-7.86 29" style="fill:none"/><path class="fil5" d="m144 209c1.05 6.92-3.57 13.4-10.3 14.4-6.75 1.02-13.1-3.76-14.1-10.7-1.05-6.92 3.57-13.4 10.3-14.4 6.75-1.02 13.1 3.76 14.1 10.7z" style="fill:url(#c)"/><path class="fil6" d="m158 94.7c1.05 6.92-3.57 13.4-10.3 14.4-6.75 1.02-13.1-3.76-14.1-10.7-1.05-6.92 3.57-13.4 10.3-14.4 6.75-1.02 13.1 3.76 14.1 10.7z" style="fill:url(#b)"/><g style="fill:#fbd115"><path class="fil7" d="m153 93.1 0.166 2.53-0.0658 0.0033-0.0651-1e-4 -0.0643-0.0032-0.0636-0.0065-0.0626-0.0095-0.0617-0.0125-0.0606-0.0155-0.0594-0.0184-0.0582-0.0211-0.0568-0.0239-0.0554-0.0265-0.054-0.029-0.0523-0.0316-0.0506-0.034-0.049-0.0364-0.047-0.0386-0.0451-0.0409-0.0432-0.0429-0.041-0.0451-0.0388-0.047-0.0366-0.0489-0.0342-0.0508-0.0317-0.0525-0.0292-0.0542-0.0267-0.0558-0.0239-0.0574-0.0211-0.0588-0.0183-0.0603-0.0153-0.0615-0.0122-0.0628-9e-3 -0.064-6e-3 -0.0651-3e-3 -0.0653 7e-4 -0.0647 4e-3 -0.0641 7e-3 -0.0632 0.0102-0.0624 0.0133-0.0614 0.0162-0.0604 0.0191-0.0593 0.0218-0.058 0.0246-0.0568 0.0273-0.0553 0.0298-0.0539 0.0323-0.0524 0.0347-0.0507 0.0371-0.049 0.0393-0.0472 0.0416-0.0453 0.0437-0.0433 0.0457-0.0412 0.0477-0.0391 0.0496-0.0368 0.0514-0.0346 0.0532-0.0321 0.0548-0.0296 0.0564-0.027 0.058-0.0244 0.0594-0.0216 0.0608-0.0188 0.0621-0.0158 0.0633-0.0129 0.0645-0.0097 0.0655-0.0066zm18.8 1.68-0.829 2.41h1e-4l-0.437-0.14-0.445-0.135-0.453-0.129-0.462-0.124-0.47-0.118-0.478-0.112-0.486-0.106-0.493-0.1-0.501-0.0946-0.509-0.0889-0.517-0.0829-0.524-0.077-0.532-0.071-0.54-0.0651-0.547-0.0591-0.554-0.053-0.562-0.0469-0.569-0.0409-0.576-0.0347-0.584-0.0286-0.591-0.0224-0.598-0.0162-0.605-0.01-0.612-0.0038-0.619 0.0026-0.625 0.0087-0.632 0.0151-0.639 0.0215-0.645 0.0276-0.652 0.0342-0.659 0.0406-0.665 0.0469-0.166-2.53 0.688-0.0485 0.682-0.042 0.676-0.0354 0.67-0.0288 0.663-0.0223 0.657-0.0157 0.651-0.0091 0.645-0.0026 0.638 4e-3 0.632 0.0104 0.625 0.017 0.619 0.0234 0.612 0.03 0.606 0.0365 0.599 0.0429 0.592 0.0495 0.586 0.056 0.578 0.0625 0.572 0.0689 0.565 0.0754 0.558 0.082 0.551 0.0883 0.544 0.0949 0.537 0.101 0.53 0.108 0.522 0.114 0.515 0.121 0.508 0.127 0.501 0.134 0.493 0.14 0.486 0.147 0.478 0.154zm11.1 8.41-2.23 1.26v1e-4l-0.178-0.304-0.186-0.299-0.194-0.294-0.202-0.289-0.211-0.284-0.219-0.279-0.227-0.275-0.235-0.27-0.243-0.265-0.252-0.26-0.26-0.255-0.268-0.25-0.276-0.245-0.284-0.24-0.293-0.235-0.301-0.23-0.309-0.225-0.317-0.22-0.325-0.215-0.334-0.21-0.342-0.205-0.35-0.2-0.358-0.194-0.366-0.19-0.374-0.184-0.382-0.179-0.39-0.173-0.398-0.168-0.406-0.163-0.414-0.157-0.422-0.152-0.43-0.146 0.829-2.41 0.471 0.16 0.464 0.167 0.456 0.173 0.449 0.18 0.442 0.186 0.434 0.193 0.427 0.2 0.419 0.206 0.412 0.213 0.404 0.22 0.396 0.226 0.388 0.233 0.38 0.24 0.372 0.246 0.364 0.253 0.356 0.26 0.348 0.266 0.34 0.273 0.331 0.28 0.322 0.286 0.314 0.293 0.305 0.3 0.296 0.306 0.288 0.313 0.278 0.319 0.269 0.326 0.26 0.332 0.251 0.338 0.241 0.345 0.232 0.351 0.222 0.357 0.212 0.363zm-10.1 36.2-2.01-1.55 0.97-1.26 0.931-1.25 0.891-1.24 0.852-1.23 0.811-1.23 0.771-1.22 0.729-1.21 0.688-1.19 0.646-1.18 0.604-1.17 0.561-1.16 0.518-1.14 0.475-1.13 0.431-1.11 0.387-1.1 0.342-1.08 0.298-1.06 0.253-1.04 0.208-1.02 0.162-1 0.117-0.984 0.0716-0.963 0.0263-0.941-0.0194-0.919-0.0649-0.897-0.11-0.874-0.156-0.851-0.202-0.829-0.248-0.806-0.294-0.783-0.341-0.761-0.388-0.739 2.23-1.26 0.462 0.878 0.405 0.904 0.348 0.927 0.292 0.95 0.237 0.972 0.182 0.992 0.128 1.01 0.0745 1.03 0.022 1.05-0.0295 1.06-0.0802 1.08-0.13 1.09-0.179 1.11-0.227 1.12-0.275 1.13-0.322 1.15-0.368 1.16-0.413 1.17-0.458 1.18-0.503 1.19-0.546 1.2-0.59 1.21-0.632 1.22-0.674 1.23-0.716 1.24-0.758 1.25-0.798 1.26-0.839 1.27-0.879 1.27-0.918 1.28-0.957 1.29zm-50 41.2-1.27-2.19 1.99-1.17 1.97-1.18 1.94-1.19 1.92-1.2 1.89-1.21 1.86-1.22 1.84-1.23 1.81-1.24 1.78-1.25 1.75-1.26 1.73-1.27 1.7-1.27 1.67-1.28 1.64-1.28 1.61-1.29 1.58-1.29 1.54-1.3 1.51-1.3 1.48-1.3 1.45-1.3 1.41-1.3 1.38-1.3 1.35-1.3 1.31-1.3 1.28-1.3 1.24-1.3 1.2-1.3 1.17-1.29 1.13-1.29 1.09-1.28 1.05-1.28 1.02-1.27 2.01 1.55-1.04 1.31-1.08 1.31-1.12 1.31-1.15 1.32-1.19 1.32-1.23 1.32-1.26 1.33-1.3 1.33-1.33 1.33-1.37 1.33-1.4 1.33-1.44 1.33-1.47 1.32-1.5 1.32-1.53 1.32-1.57 1.32-1.6 1.31-1.63 1.31-1.66 1.3-1.69 1.3-1.72 1.29-1.75 1.28-1.78 1.27-1.8 1.27-1.83 1.26-1.86 1.25-1.89 1.24-1.91 1.23-1.94 1.22-1.96 1.2-1.99 1.19zm-60.7 22.7-0.322-2.52 1.6-0.232 1.63-0.264 1.65-0.294 1.68-0.326 1.7-0.357 1.72-0.388 1.74-0.418 1.76-0.449 1.78-0.479 1.8-0.51 1.82-0.54 1.83-0.57 1.85-0.6 1.87-0.63 1.88-0.66 1.89-0.69 1.91-0.719 1.92-0.748 1.93-0.778 1.94-0.807 1.95-0.836 1.96-0.865 1.97-0.894 1.98-0.923 1.98-0.951 1.99-0.98 1.99-1.01 2-1.04 2-1.06 2-1.09 2.01-1.12 2.01-1.15 1.27 2.19-2.03 1.16-2.03 1.13-2.03 1.1-2.02 1.08-2.02 1.05-2.02 1.02-2.01 0.992-2.01 0.963-2 0.934-1.99 0.905-1.99 0.876-1.98 0.847-1.97 0.818-1.96 0.789-1.95 0.759-1.93 0.73-1.92 0.7-1.91 0.67-1.89 0.64-1.88 0.61-1.86 0.58-1.85 0.549-1.83 0.519-1.81 0.488-1.8 0.458-1.78 0.426-1.76 0.396-1.74 0.365-1.71 0.333-1.69 0.302-1.67 0.27zm-35.8-10.3 2.3-1.14-1e-4 -1e-4 0.4 0.748 0.444 0.716 0.489 0.685 0.532 0.655 0.576 0.625 0.62 0.595 0.664 0.566 0.708 0.537 0.751 0.508 0.794 0.479 0.837 0.449 0.88 0.42 0.922 0.39 0.964 0.36 1 0.33 1.04 0.299 1.08 0.268 1.12 0.238 1.16 0.206 1.2 0.175 1.23 0.144 1.27 0.113 1.3 0.0814 1.34 0.0499 1.37 0.0185 1.4-0.0129 1.43-0.0443 1.46-0.0757 1.49-0.107 1.52-0.138 1.55-0.17 1.57-0.201 0.322 2.52-1.62 0.206-1.59 0.175-1.57 0.143-1.54 0.111-1.51 0.0785-1.49 0.0459-1.46 0.0135-1.43-0.0193-1.4-0.0523-1.37-0.0854-1.34-0.119-1.31-0.152-1.27-0.186-1.24-0.221-1.21-0.255-1.17-0.29-1.14-0.325-1.1-0.361-1.06-0.397-1.02-0.433-0.986-0.47-0.946-0.508-0.905-0.545-0.863-0.584-0.819-0.622-0.775-0.661-0.728-0.7-0.681-0.738-0.632-0.777-0.581-0.815-0.529-0.852-0.476-0.889zm0.448-18.3 2.39 0.874-0.225 0.608-0.211 0.603-0.198 0.597-0.184 0.592-0.171 0.586-0.157 0.58-0.144 0.574-0.13 0.568-0.117 0.562-0.104 0.556-0.0901 0.55-0.0767 0.543-0.0631 0.536-0.0498 0.53-0.0363 0.523-0.0229 0.516-0.0096 0.509 0.0038 0.502 0.0171 0.495 0.0304 0.488 0.0437 0.48 0.057 0.473 0.0702 0.466 0.0833 0.458 0.0965 0.451 0.11 0.444 0.123 0.436 0.136 0.429 0.149 0.422 0.163 0.414 0.176 0.407 0.189 0.4-2.3 1.14-0.226-0.478-0.21-0.485-0.193-0.493-0.177-0.5-0.161-0.508-0.145-0.515-0.129-0.521-0.113-0.528-0.0971-0.534-0.0814-0.54-0.0658-0.547-0.0503-0.553-0.0348-0.558-0.0195-0.564-0.0044-0.569 0.0108-0.575 0.0257-0.58 0.0407-0.585 0.0554-0.59 0.0701-0.595 0.0847-0.6 0.0991-0.604 0.114-0.609 0.128-0.614 0.142-0.618 0.156-0.623 0.17-0.627 0.184-0.631 0.198-0.636 0.212-0.64 0.226-0.644zm14.6-22.4 1.91 1.67-0.64 0.725-0.628 0.722-0.615 0.72-0.602 0.718-0.59 0.716-0.577 0.713-0.564 0.71-0.552 0.708-0.539 0.705-0.526 0.702-0.513 0.699-0.5 0.696-0.487 0.693-0.474 0.689-0.461 0.686-0.448 0.682-0.435 0.678-0.422 0.675-0.409 0.671-0.396 0.667-0.383 0.663-0.37 0.658-0.357 0.654-0.343 0.65-0.33 0.645-0.317 0.64-0.303 0.636-0.29 0.631-0.277 0.626-0.263 0.621-0.25 0.615-0.237 0.61-2.39-0.874 0.252-0.648 0.265-0.652 0.279-0.656 0.292-0.66 0.306-0.664 0.319-0.668 0.332-0.672 0.346-0.676 0.359-0.679 0.372-0.683 0.386-0.686 0.399-0.69 0.412-0.693 0.425-0.696 0.438-0.7 0.451-0.702 0.464-0.706 0.477-0.708 0.49-0.711 0.502-0.714 0.516-0.717 0.528-0.719 0.541-0.722 0.554-0.724 0.566-0.727 0.579-0.729 0.592-0.731 0.604-0.733 0.617-0.735 0.63-0.737 0.642-0.739zm1.91 1.67-1.91-1.67 0.0451-0.0481 0.0469-0.0453 0.0487-0.0426 0.0503-0.0397 0.0519-0.0369 0.0533-0.0341 0.0545-0.0312 0.0558-0.0285 0.0568-0.0256 0.0578-0.0227 0.0586-0.0199 0.0594-0.017 0.0599-0.0142 0.0605-0.0112 0.0609-8e-3 0.0611-5e-3 0.0614-3e-3 0.0613 3e-4 0.0613 3e-3 0.0612 6e-3 0.0608 9e-3 0.0604 0.012 0.0599 0.015 0.0593 0.0179 0.0586 0.0209 0.0577 0.0238 0.0567 0.0269 0.0556 0.0298 0.0544 0.0328 0.0531 0.0358 0.0517 0.0388 0.0502 0.0418 0.0479 0.0443 0.0452 0.0462 0.0422 0.048 0.0395 0.0496 0.0366 0.0512 0.0337 0.0526 0.0309 0.0539 0.0281 0.0551 0.0251 0.0563 0.0223 0.0572 0.0194 0.058 0.0165 0.0589 0.0136 0.0595 0.0107 0.06 0.0079 0.0604 0.0048 0.0607 2e-3 0.061-9e-4 0.061-0.0039 0.0609-0.0068 0.0609-0.0098 0.0605-0.0127 0.0602-0.0157 0.0597-0.0187 0.0592-0.0216 0.0584-0.0246 0.0576-0.0275 0.0566-0.0306 0.0556-0.0336 0.0545-0.0365 0.0531-0.0396 0.0518z" style="fill-rule:nonzero;fill:#fbd115"/></g><g style="fill:#fbd115"><path class="fil7" d="m131 219-2.25-1.17 0.0313-0.0579 0.0338-0.0556 0.0361-0.0534 0.0385-0.051 0.0406-0.0486 0.0427-0.0462 0.0446-0.0437 0.0465-0.0413 0.0483-0.0388 0.0498-0.0362 0.0514-0.0336 0.0529-0.031 0.0541-0.0283 0.0553-0.0257 0.0565-0.0229 0.0574-0.0202 0.0583-0.0174 0.0591-0.0145 0.0598-0.0117 0.0603-9e-3 0.0608-6e-3 0.0611-3e-3 0.0614 2e-4 0.0615 3e-3 0.0616 6e-3 0.0614 9e-3 0.0613 0.0124 0.061 0.0157 0.0606 0.0188 0.06 0.0221 0.0595 0.0254 0.0587 0.0287 0.0572 0.0317 0.055 0.0342 0.0527 0.0366 0.0504 0.0389 0.048 0.0411 0.0457 0.0432 0.0432 0.0452 0.0408 0.047 0.0383 0.0488 0.0357 0.0505 0.0333 0.052 0.0306 0.0535 0.028 0.0548 0.0254 0.056 0.0226 0.0571 0.02 0.0581 0.0171 0.059 0.0144 0.0599 0.0116 0.0604 9e-3 0.0611 6e-3 0.0615 3e-3 0.0619-1e-4 0.0621-3e-3 0.0623-6e-3 0.0623-9e-3 0.0622-0.0123 0.062-0.0155 0.0617-0.0186 0.0613-0.0219 0.0608-0.025 0.0602-0.0284 0.0594zm-11 14.8-1.6-1.98h-1e-4l0.342-0.288 0.342-0.298 0.341-0.308 0.34-0.318 0.339-0.327 0.338-0.337 0.338-0.346 0.336-0.356 0.335-0.366 0.334-0.376 0.333-0.385 0.332-0.395 0.331-0.404 0.329-0.414 0.328-0.423 0.327-0.432 0.325-0.442 0.324-0.452 0.322-0.461 0.321-0.47 0.319-0.48 0.317-0.489 0.316-0.498 0.314-0.507 0.312-0.516 0.31-0.526 0.308-0.535 0.306-0.544 0.304-0.553 0.302-0.562 0.3-0.571 0.298-0.58 2.25 1.17-0.309 0.601-0.312 0.592-0.314 0.584-0.316 0.575-0.319 0.566-0.321 0.557-0.324 0.548-0.326 0.54-0.328 0.531-0.33 0.522-0.333 0.513-0.335 0.504-0.337 0.495-0.34 0.486-0.342 0.476-0.344 0.467-0.346 0.458-0.348 0.449-0.35 0.44-0.352 0.431-0.355 0.422-0.357 0.412-0.359 0.403-0.361 0.393-0.363 0.384-0.365 0.375-0.367 0.365-0.369 0.356-0.37 0.346-0.373 0.337-0.374 0.327-0.376 0.317zm-12.9 4.77 0.161-2.56h-2e-4l0.351 0.0177 0.35 8e-3 0.35-2e-3 0.35-0.0113 0.35-0.0208 0.349-0.0306 0.349-0.0401 0.349-0.0497 0.349-0.0592 0.349-0.0687 0.349-0.0783 0.349-0.0878 0.348-0.0974 0.349-0.107 0.349-0.116 0.348-0.126 0.348-0.136 0.348-0.145 0.348-0.155 0.348-0.164 0.348-0.174 0.348-0.184 0.347-0.193 0.347-0.203 0.347-0.212 0.347-0.222 0.346-0.232 0.346-0.241 0.345-0.251 0.345-0.26 0.344-0.27 0.344-0.279 1.6 1.98-0.378 0.308-0.38 0.298-0.382 0.289-0.384 0.279-0.386 0.269-0.388 0.259-0.389 0.249-0.391 0.24-0.393 0.23-0.395 0.219-0.396 0.209-0.398 0.199-0.4 0.189-0.402 0.179-0.403 0.168-0.405 0.158-0.406 0.147-0.407 0.136-0.409 0.126-0.411 0.115-0.411 0.104-0.413 0.0927-0.414 0.0815-0.415 0.0704-0.416 0.0591-0.417 0.0479-0.418 0.0364-0.418 0.025-0.418 0.0135-0.419 2e-3 -0.42-0.01-0.42-0.0213h-2e-4zm-26.1-28.7 2.36-0.922 0.591 1.52 0.605 1.48 0.618 1.44 0.632 1.41 0.645 1.37 0.657 1.33 0.67 1.29 0.681 1.25 0.693 1.21 0.704 1.17 0.715 1.12 0.725 1.08 0.735 1.03 0.744 0.989 0.753 0.943 0.762 0.896 0.77 0.849 0.777 0.801 0.784 0.752 0.79 0.702 0.796 0.653 0.802 0.602 0.806 0.551 0.811 0.5 0.815 0.449 0.819 0.397 0.822 0.345 0.826 0.292 0.829 0.24 0.833 0.187 0.837 0.134 0.841 0.0812-0.161 2.56-0.999-0.0964-0.991-0.159-0.983-0.221-0.973-0.282-0.962-0.341-0.951-0.398-0.939-0.455-0.927-0.51-0.915-0.564-0.902-0.617-0.89-0.668-0.877-0.719-0.865-0.768-0.852-0.817-0.839-0.864-0.826-0.911-0.814-0.957-0.801-1-0.788-1.05-0.775-1.09-0.761-1.13-0.748-1.17-0.735-1.22-0.721-1.26-0.707-1.3-0.693-1.34-0.679-1.37-0.665-1.41-0.65-1.45-0.636-1.48-0.621-1.52zm-10-63.6 2.53 0.0146v1e-4l-0.0014 2.26 0.0211 2.25 0.0437 2.24 0.0657 2.22 0.0876 2.21 0.109 2.19 0.13 2.18 0.152 2.16 0.172 2.14 0.193 2.12 0.213 2.11 0.233 2.09 0.252 2.07 0.272 2.05 0.291 2.02 0.31 2 0.328 1.98 0.347 1.95 0.365 1.93 0.383 1.9 0.4 1.88 0.417 1.85 0.434 1.82 0.451 1.79 0.467 1.77 0.483 1.74 0.498 1.7 0.514 1.67 0.529 1.64 0.544 1.61 0.558 1.57 0.572 1.54-2.36 0.922-0.586-1.58-0.571-1.61-0.556-1.64-0.54-1.68-0.524-1.71-0.508-1.74-0.492-1.77-0.475-1.8-0.458-1.83-0.441-1.85-0.424-1.88-0.406-1.91-0.388-1.93-0.37-1.96-0.352-1.98-0.333-2.01-0.314-2.03-0.295-2.05-0.276-2.07-0.256-2.09-0.236-2.11-0.216-2.13-0.195-2.15-0.174-2.17-0.153-2.19-0.132-2.2-0.111-2.22-0.0886-2.23-0.0665-2.25-0.0441-2.26-0.0215-2.27 0.0014-2.29zm10.6-62.2 2.34 0.974-0.581 1.47-0.568 1.5-0.554 1.54-0.54 1.57-0.525 1.6-0.511 1.64-0.496 1.67-0.48 1.7-0.464 1.73-0.449 1.76-0.432 1.79-0.416 1.82-0.399 1.85-0.382 1.88-0.364 1.9-0.347 1.93-0.329 1.95-0.31 1.98-0.292 2-0.273 2.03-0.254 2.05-0.234 2.07-0.214 2.09-0.194 2.11-0.174 2.13-0.154 2.15-0.133 2.17-0.111 2.19-0.0902 2.21-0.0682 2.22-0.0464 2.24-0.024 2.25-2.53-0.0146 0.0244-2.28 0.0468-2.26 0.0692-2.25 0.0912-2.23 0.113-2.22 0.134-2.2 0.155-2.18 0.176-2.16 0.197-2.14 0.217-2.12 0.237-2.1 0.257-2.08 0.277-2.05 0.296-2.03 0.315-2.01 0.333-1.98 0.352-1.96 0.37-1.93 0.388-1.91 0.405-1.88 0.423-1.85 0.44-1.82 0.457-1.79 0.473-1.76 0.49-1.73 0.506-1.7 0.521-1.67 0.537-1.64 0.552-1.61 0.567-1.57 0.582-1.54zm26-26-0.0204 2.56h-1e-4l-0.827 0.0192-0.822 0.0706-0.817 0.122-0.813 0.172-0.81 0.223-0.806 0.273-0.803 0.323-0.8 0.373-0.796 0.423-0.792 0.472-0.788 0.522-0.784 0.571-0.778 0.62-0.773 0.668-0.767 0.716-0.76 0.763-0.753 0.81-0.746 0.856-0.738 0.902-0.729 0.946-0.72 0.991-0.711 1.03-0.701 1.08-0.691 1.12-0.68 1.16-0.669 1.2-0.658 1.24-0.646 1.28-0.634 1.32-0.621 1.36-0.608 1.4-0.595 1.43-2.34-0.974 0.612-1.47 0.626-1.44 0.641-1.4 0.655-1.36 0.668-1.33 0.682-1.29 0.696-1.25 0.709-1.21 0.722-1.17 0.735-1.13 0.748-1.09 0.761-1.05 0.774-1 0.786-0.961 0.799-0.917 0.812-0.872 0.824-0.827 0.836-0.78 0.849-0.733 0.861-0.685 0.873-0.636 0.885-0.586 0.897-0.535 0.909-0.483 0.92-0.429 0.932-0.375 0.942-0.319 0.952-0.262 0.962-0.204 0.97-0.144 0.977-0.084 0.984-0.0228zm15.6 8.45-1.89 1.7-0.414-0.463-0.416-0.449-0.417-0.434-0.419-0.42-0.42-0.406-0.422-0.391-0.423-0.376-0.424-0.362-0.426-0.347-0.427-0.333-0.428-0.318-0.428-0.303-0.429-0.288-0.43-0.274-0.431-0.259-0.431-0.244-0.432-0.23-0.432-0.215-0.432-0.2-0.433-0.186-0.433-0.171-0.433-0.156-0.434-0.142-0.434-0.127-0.434-0.113-0.435-0.0983-0.435-0.0837-0.435-0.0692-0.436-0.0546-0.436-0.0401-0.436-0.0256-0.437-0.0108 0.0204-2.56 0.521 0.013 0.52 0.0304 0.519 0.0477 0.518 0.065 0.516 0.082 0.515 0.0991 0.513 0.116 0.511 0.133 0.509 0.149 0.507 0.166 0.504 0.182 0.502 0.198 0.5 0.214 0.497 0.23 0.494 0.246 0.492 0.262 0.489 0.277 0.486 0.293 0.484 0.308 0.481 0.323 0.478 0.338 0.475 0.353 0.472 0.368 0.469 0.382 0.466 0.397 0.463 0.412 0.46 0.426 0.456 0.44 0.453 0.455 0.45 0.469 0.447 0.483zm12.4 23-2.39 0.859-0.318-0.894-0.322-0.882-0.326-0.869-0.331-0.857-0.334-0.844-0.338-0.832-0.342-0.819-0.346-0.807-0.35-0.794-0.353-0.781-0.357-0.768-0.36-0.755-0.364-0.742-0.367-0.729-0.37-0.716-0.373-0.702-0.376-0.689-0.38-0.676-0.382-0.662-0.385-0.649-0.388-0.635-0.391-0.621-0.394-0.607-0.396-0.593-0.399-0.58-0.401-0.566-0.403-0.551-0.406-0.537-0.408-0.523-0.41-0.508-0.412-0.494-0.414-0.48 1.89-1.7 0.442 0.513 0.439 0.527 0.436 0.541 0.433 0.555 0.429 0.568 0.426 0.582 0.423 0.596 0.419 0.609 0.416 0.623 0.412 0.636 0.409 0.65 0.405 0.663 0.402 0.676 0.398 0.689 0.394 0.702 0.391 0.716 0.387 0.728 0.383 0.741 0.379 0.754 0.376 0.767 0.372 0.779 0.368 0.792 0.364 0.804 0.36 0.817 0.356 0.829 0.352 0.842 0.347 0.854 0.343 0.866 0.339 0.878 0.334 0.89 0.33 0.902zm-2.39 0.859 2.39-0.859 0.0203 0.0627 0.0169 0.063 0.0137 0.0632 0.0104 0.0633 7e-3 0.0632 4e-3 0.0632 1e-3 0.0629-2e-3 0.0625-5e-3 0.0621-8e-3 0.0616-0.0109 0.0609-0.0139 0.0602-0.0166 0.0594-0.0194 0.0584-0.0221 0.0573-0.0248 0.0562-0.0274 0.0549-0.03 0.0536-0.0325 0.0521-0.0349 0.0505-0.0374 0.0489-0.0398 0.047-0.0421 0.0452-0.0443 0.0433-0.0467 0.0411-0.0487 0.039-0.051 0.0366-0.053 0.0343-0.055 0.0318-0.0571 0.0291-0.0589 0.0265-0.0609 0.0237-0.062 0.0205-0.0622 0.0172-0.0625 0.0138-0.0625 0.0105-0.0625 0.0073-0.0623 0.0041-0.0622 1e-3 -0.0618-0.0021-0.0614-0.0052-0.0608-0.0082-0.0602-0.0111-0.0595-0.014-0.0586-0.0168-0.0577-0.0196-0.0567-0.0224-0.0555-0.0251-0.0543-0.0277-0.0529-0.0304-0.0515-0.0328-0.0499-0.0354-0.0483-0.0379-0.0465-0.0402-0.0447-0.0426-0.0427-0.0449-0.0406-0.0472-0.0385-0.0494-0.0362-0.0515-0.0339-0.0537-0.0314-0.0557-0.0288-0.0577-0.0262-0.0597-0.0234-0.0616z" style="fill-rule:nonzero;fill:#fbd115"/></g><g style="fill:#fbd115"><path class="fil7" d="m32.3 134 2.13-1.38 0.0348 0.0559 0.0316 0.0568 0.0285 0.0579 0.0253 0.0586 0.0221 0.0594 0.019 0.0599 0.0159 0.0605 0.0129 0.0608 0.0098 0.0611 0.0068 0.0613 0.0037 0.0613 8e-4 0.0612-0.0021 0.0611-0.0051 0.0608-8e-3 0.0604-0.0109 0.0599-0.0138 0.0593-0.0166 0.0586-0.0194 0.0577-0.0222 0.0568-0.025 0.0557-0.0277 0.0545-0.0305 0.0533-0.0332 0.0519-0.0358 0.0504-0.0385 0.0488-0.0412 0.0471-0.0438 0.0452-0.0463 0.0433-0.0489 0.0413-0.0515 0.0391-0.054 0.0368-0.0558 0.034-0.0569 0.0309-0.0579 0.0277-0.0588 0.0245-0.0594 0.0214-0.0602 0.0183-0.0606 0.0152-0.0611 0.0121-0.0614 9e-3 -0.0615 6e-3 -0.0617 3e-3 -0.0616 1e-4 -0.0614-3e-3 -0.0613-6e-3 -0.0608-9e-3 -0.0604-0.0115-0.0598-0.0142-0.059-0.0172-0.0583-0.0199-0.0574-0.0226-0.0563-0.0254-0.0552-0.0282-0.0539-0.0308-0.0526-0.0335-0.051-0.0362-0.0495-0.0388-0.0478-0.0414-0.046-0.044-0.044-0.0465-0.042-0.0491-0.0399-0.0515-0.0376-0.0541zm-7.4-16.6 2.51-0.457 0.0886 0.436 0.0971 0.44 0.105 0.444 0.114 0.448 0.122 0.452 0.131 0.456 0.139 0.46 0.148 0.463 0.156 0.466 0.165 0.47 0.174 0.474 0.182 0.477 0.19 0.481 0.199 0.484 0.207 0.487 0.216 0.491 0.224 0.494 0.233 0.497 0.241 0.5 0.25 0.503 0.258 0.506 0.266 0.509 0.275 0.512 0.283 0.515 0.291 0.517 0.3 0.52 0.308 0.523 0.316 0.525 0.325 0.528 0.333 0.53 0.341 0.533 0.349 0.535-2.13 1.38-0.362-0.554-0.354-0.552-0.345-0.55-0.337-0.548-0.329-0.546-0.32-0.544-0.312-0.542-0.304-0.54-0.296-0.537-0.287-0.535-0.279-0.533-0.271-0.531-0.262-0.528-0.254-0.526-0.245-0.524-0.237-0.521-0.228-0.519-0.22-0.516-0.211-0.514-0.202-0.511-0.194-0.508-0.185-0.506-0.177-0.503-0.168-0.501-0.159-0.498-0.15-0.495-0.142-0.492-0.133-0.49-0.124-0.487-0.115-0.484-0.106-0.481zm1.79-13.5 2.21 1.3v-1e-4l-0.17 0.299-0.162 0.303-0.154 0.307-0.147 0.312-0.139 0.316-0.131 0.32-0.123 0.324-0.115 0.329-0.107 0.333-0.0992 0.338-0.0912 0.342-0.0834 0.346-0.0754 0.351-0.0675 0.355-0.0595 0.36-0.0516 0.364-0.0434 0.368-0.0355 0.373-0.0274 0.377-0.0193 0.381-0.0111 0.386-0.0031 0.39 0.0052 0.394 0.0133 0.398 0.0217 0.403 0.0298 0.407 0.0381 0.411 0.0465 0.415 0.0548 0.419 0.0632 0.424 0.0715 0.427 0.08 0.431-2.51 0.457-0.088-0.475-0.0789-0.471-0.07-0.468-0.0608-0.466-0.0517-0.462-0.0427-0.459-0.0334-0.456-0.0243-0.453-0.0151-0.45-0.0058-0.446 0.0035-0.443 0.0127-0.44 0.0221-0.436 0.0314-0.433 0.0409-0.429 0.0502-0.426 0.0598-0.422 0.0691-0.418 0.0787-0.414 0.0882-0.41 0.0978-0.406 0.107-0.402 0.117-0.398 0.127-0.394 0.136-0.389 0.146-0.384 0.155-0.38 0.165-0.375 0.174-0.371 0.184-0.366 0.194-0.361 0.203-0.356zm36.4-9.31-0.337 2.52-1.57-0.211-1.55-0.181-1.52-0.15-1.49-0.12-1.47-0.09-1.44-0.0596-1.41-0.0293-1.38 0.0011-1.35 0.0314-1.31 0.0618-1.28 0.0922-1.25 0.123-1.21 0.153-1.18 0.183-1.14 0.213-1.11 0.243-1.07 0.273-1.03 0.303-0.991 0.332-0.951 0.361-0.91 0.39-0.87 0.419-0.828 0.448-0.786 0.476-0.744 0.505-0.702 0.533-0.659 0.561-0.617 0.589-0.574 0.618-0.531 0.646-0.488 0.676-0.446 0.706-2.21-1.3 0.53-0.838 0.58-0.802 0.629-0.765 0.677-0.728 0.723-0.691 0.768-0.653 0.811-0.616 0.854-0.579 0.894-0.542 0.934-0.505 0.973-0.469 1.01-0.434 1.05-0.398 1.08-0.364 1.12-0.329 1.15-0.295 1.19-0.261 1.22-0.228 1.25-0.195 1.29-0.162 1.32-0.129 1.35-0.0968 1.38-0.0648 1.41-0.0328 1.43-0.0011 1.46 0.0303 1.49 0.0618 1.52 0.093 1.54 0.124 1.57 0.155 1.59 0.186zm60.7 22.7-1.26 2.2-2-1.14-2-1.11-2-1.09-2-1.06-2-1.03-1.99-1-1.99-0.975-1.98-0.946-1.97-0.918-1.97-0.89-1.96-0.862-1.95-0.833-1.94-0.805-1.93-0.776-1.92-0.747-1.91-0.718-1.89-0.689-1.88-0.66-1.87-0.631-1.85-0.602-1.84-0.572-1.82-0.543-1.8-0.513-1.78-0.483-1.77-0.454-1.75-0.424-1.72-0.394-1.7-0.364-1.68-0.334-1.66-0.303-1.63-0.273-1.61-0.243 0.337-2.52 1.65 0.249 1.67 0.28 1.7 0.31 1.72 0.341 1.74 0.371 1.76 0.402 1.78 0.432 1.8 0.462 1.82 0.492 1.83 0.522 1.85 0.552 1.87 0.582 1.88 0.611 1.9 0.641 1.91 0.67 1.92 0.699 1.93 0.728 1.95 0.758 1.96 0.786 1.97 0.815 1.98 0.844 1.98 0.873 1.99 0.901 2 0.93 2.01 0.958 2.01 0.986 2.02 1.01 2.02 1.04 2.02 1.07 2.02 1.1 2.03 1.13zm50 41.2-2.02 1.54-1-1.27-1.04-1.28-1.08-1.28-1.12-1.29-1.16-1.29-1.2-1.3-1.23-1.3-1.27-1.3-1.31-1.3-1.34-1.3-1.38-1.3-1.41-1.3-1.44-1.3-1.48-1.3-1.51-1.3-1.54-1.3-1.58-1.29-1.61-1.29-1.64-1.28-1.67-1.28-1.7-1.27-1.73-1.26-1.76-1.26-1.79-1.25-1.81-1.24-1.84-1.23-1.87-1.22-1.9-1.21-1.92-1.2-1.95-1.19-1.97-1.18-2-1.16 1.26-2.2 2.02 1.18 2 1.19 1.97 1.2 1.94 1.21 1.92 1.23 1.89 1.24 1.86 1.25 1.84 1.26 1.81 1.27 1.78 1.27 1.75 1.28 1.72 1.29 1.69 1.29 1.66 1.3 1.63 1.31 1.6 1.31 1.57 1.31 1.53 1.32 1.5 1.32 1.47 1.32 1.43 1.33 1.4 1.33 1.36 1.33 1.33 1.33 1.29 1.33 1.26 1.32 1.22 1.32 1.18 1.32 1.15 1.32 1.11 1.31 1.07 1.31zm8.97 36.1-2.14-1.42-1e-4 1e-4 0.448-0.721 0.398-0.743 0.349-0.766 0.301-0.788 0.253-0.812 0.206-0.835 0.158-0.858 0.111-0.881 0.0644-0.905 0.0174-0.928-0.0295-0.95-0.0764-0.972-0.123-0.994-0.17-1.01-0.217-1.03-0.263-1.05-0.31-1.07-0.356-1.09-0.401-1.11-0.447-1.12-0.492-1.14-0.536-1.15-0.581-1.17-0.625-1.18-0.668-1.19-0.712-1.21-0.754-1.22-0.797-1.23-0.838-1.24-0.88-1.25-0.921-1.26-0.961-1.26 2.02-1.54 0.988 1.3 0.948 1.29 0.908 1.29 0.867 1.28 0.825 1.27 0.783 1.26 0.741 1.26 0.698 1.25 0.654 1.24 0.61 1.23 0.566 1.22 0.521 1.21 0.475 1.2 0.429 1.18 0.382 1.17 0.334 1.16 0.286 1.15 0.237 1.13 0.187 1.12 0.137 1.1 0.0856 1.09 0.0333 1.07-0.0198 1.06-0.074 1.04-0.129 1.02-0.185 1-0.242 0.981-0.299 0.959-0.357 0.935-0.415 0.911-0.474 0.885-0.532 0.857zm-15.2 8.62-0.496-2.5v-1e-4l0.599-0.117 0.589-0.125 0.578-0.133 0.567-0.141 0.556-0.149 0.545-0.157 0.534-0.165 0.523-0.173 0.512-0.181 0.501-0.188 0.489-0.196 0.478-0.204 0.466-0.211 0.455-0.219 0.443-0.226 0.431-0.234 0.42-0.241 0.408-0.248 0.396-0.256 0.384-0.263 0.372-0.27 0.36-0.277 0.348-0.284 0.336-0.292 0.324-0.299 0.313-0.306 0.3-0.313 0.289-0.32 0.277-0.327 0.265-0.334 0.253-0.342 0.241-0.349 2.14 1.42-0.288 0.417-0.302 0.407-0.315 0.398-0.328 0.388-0.342 0.379-0.355 0.369-0.368 0.36-0.38 0.35-0.393 0.34-0.405 0.331-0.417 0.321-0.429 0.312-0.441 0.302-0.452 0.292-0.464 0.282-0.475 0.273-0.486 0.264-0.497 0.254-0.508 0.245-0.519 0.235-0.53 0.226-0.54 0.216-0.551 0.207-0.561 0.198-0.571 0.189-0.581 0.179-0.591 0.17-0.602 0.161-0.611 0.152-0.621 0.143-0.631 0.134-0.64 0.125zm-25.1-0.789 0.442-2.5 0.89 0.161 0.883 0.152 0.875 0.143 0.867 0.134 0.859 0.125 0.851 0.116 0.843 0.107 0.834 0.0983 0.826 0.0894 0.818 0.0806 0.809 0.0718 0.8 0.0631 0.792 0.0542 0.783 0.0455 0.774 0.0367 0.765 0.0281 0.756 0.0194 0.746 0.0106 0.737 2e-3 0.727-7e-3 0.718-0.0151 0.708-0.0237 0.698-0.0323 0.689-0.0408 0.679-0.0493 0.668-0.0577 0.658-0.0661 0.648-0.0746 0.638-0.0829 0.627-0.0913 0.617-0.0995 0.606-0.108 0.496 2.5-0.647 0.115-0.656 0.106-0.666 0.0969-0.676 0.0879-0.685 0.0788-0.694 0.0697-0.704 0.0609-0.713 0.0517-0.722 0.0428-0.731 0.0339-0.74 0.0247-0.749 0.0159-0.758 7e-3 -0.767-2e-3 -0.776-0.0112-0.784-0.02-0.793-0.0291-0.801-0.0381-0.81-0.0471-0.818-0.056-0.826-0.0651-0.834-0.074-0.842-0.083-0.85-0.0922-0.858-0.101-0.866-0.11-0.874-0.119-0.882-0.128-0.889-0.137-0.896-0.146-0.904-0.155-0.911-0.164zm0.442-2.5-0.442 2.5-0.0645-0.0136-0.0631-0.0166-0.0616-0.0196-0.0601-0.0224-0.0584-0.0252-0.0568-0.0279-0.055-0.0305-0.0532-0.0329-0.0514-0.0353-0.0494-0.0376-0.0474-0.0399-0.0454-0.0419-0.0432-0.044-0.041-0.0458-0.0387-0.0477-0.0364-0.0495-0.0341-0.0511-0.0315-0.0526-0.0291-0.0541-0.0264-0.0555-0.0238-0.0567-0.0211-0.058-0.0182-0.059-0.0155-0.06-0.0125-0.0609-0.01-0.0617-6e-3 -0.0624-3e-3 -0.063-2e-4 -0.0636 3e-3 -0.064 6e-3 -0.0643 0.01-0.0646 0.013-0.064 0.0161-0.0625 0.019-0.0611 0.022-0.0594 0.0247-0.0579 0.0275-0.0561 0.03-0.0544 0.0326-0.0526 0.035-0.0506 0.0373-0.0488 0.0396-0.0467 0.0417-0.0446 0.0438-0.0425 0.0457-0.0403 0.0476-0.038 0.0494-0.0357 0.051-0.0333 0.0527-0.0308 0.0541-0.0283 0.0555-0.0257 0.0569-0.0231 0.058-0.0203 0.0592-0.0176 0.0602-0.0147 0.0611-0.0118 0.062-9e-3 0.0628-6e-3 0.0633-3e-3 0.064 5e-4 0.0644 4e-3 0.0648 7e-3 0.0651 0.0103z" style="fill-rule:nonzero;fill:#fbd115"/></g><g transform="translate(8.22 9.25)"><text x="73.620758" y="155.10699" style="fill:#ffffff;font-family:'Noto Sans';font-feature-settings:normal;font-size:50.8px;font-variant-caps:normal;font-variant-ligatures:normal;font-variant-numeric:normal;letter-spacing:0px;line-height:0%;stroke-width:1px;word-spacing:0px;writing-mode:lr" xml:space="preserve"><tspan x="73.620758" y="155.10699" style="fill:#ffffff;font-family:'Noto Sans';font-feature-settings:normal;font-size:50.8px;font-variant-caps:normal;font-variant-ligatures:normal;font-variant-numeric:normal;line-height:125%;writing-mode:lr">A</tspan></text>
<text x="107.25591" y="155.10699" style="fill:#000000;font-family:'Noto Sans';font-feature-settings:normal;font-size:38.1px;font-variant-caps:normal;font-variant-ligatures:normal;font-variant-numeric:normal;letter-spacing:0px;line-height:0%;stroke-width:1px;word-spacing:0px;writing-mode:lr" xml:space="preserve"><tspan x="107.25591" y="155.10699" style="fill:#ffffff;font-family:'Noto Sans';font-feature-settings:normal;font-size:38.1px;font-variant-caps:normal;font-variant-ligatures:normal;font-variant-numeric:normal;line-height:125%;writing-mode:lr">c</tspan></text>
</g></g></svg>
