<?xml version="1.0" encoding="UTF-8" standalone="no"?>
<svg
   xmlns:dc="http://purl.org/dc/elements/1.1/"
   xmlns:cc="http://creativecommons.org/ns#"
   xmlns:rdf="http://www.w3.org/1999/02/22-rdf-syntax-ns#"
   xmlns:svg="http://www.w3.org/2000/svg"
   xmlns="http://www.w3.org/2000/svg"
   xmlns:xlink="http://www.w3.org/1999/xlink"
   version="1.1"
   id="svg2"
   viewBox="0 0 161.0587 180.53639"
   style="clip-rule:evenodd;fill-rule:evenodd;image-rendering:optimizeQuality;shape-rendering:geometricPrecision;text-rendering:geometricPrecision"
   height="100%"
   width="100%"
   xml:space="preserve"><metadata
     id="metadata66"><rdf:RDF><cc:Work
         rdf:about=""><dc:format>image/svg+xml</dc:format><dc:type
           rdf:resource="http://purl.org/dc/dcmitype/StillImage" /><dc:title></dc:title></cc:Work></rdf:RDF></metadata><defs
     id="defs4"><style
       id="style6"
       type="text/css"><![CDATA[
    .fil3 {fill:none}
    .fil7 {fill:#FFF212;fill-rule:nonzero}
    .fil0 {fill:#F47E63;fill-rule:nonzero}
    .fil1 {fill:#F9AB6D;fill-rule:nonzero}
    .fil2 {fill:#FFF57C;fill-rule:nonzero}
    .fil4 {fill:url(#id0)}
    .fil5 {fill:url(#id1)}
    .fil6 {fill:url(#id2)}
   ]]></style><radialGradient
       fy="134.98801"
       fx="35.626801"
       r="12.6696"
       cy="134.98801"
       cx="35.626801"
       gradientUnits="userSpaceOnUse"
       id="id0"><stop
         id="stop9"
         style="stop-color:#FFF212"
         offset="0" /><stop
         id="stop11"
         style="stop-color:#F58634"
         offset="0.501961" /><stop
         id="stop13"
         style="stop-color:#ED3237"
         offset="1" /></radialGradient><radialGradient
       fy="206.61"
       fx="128.48"
       r="12.6696"
       cy="206.61"
       cx="128.48"
       xlink:href="#id0"
       gradientUnits="userSpaceOnUse"
       id="id1" /><radialGradient
       fy="92.704803"
       fx="142.532"
       r="12.6696"
       cy="92.704803"
       cx="142.532"
       xlink:href="#id0"
       gradientUnits="userSpaceOnUse"
       id="id2" /><radialGradient
       r="12.6696"
       fy="134.98801"
       fx="35.626801"
       cy="134.98801"
       cx="35.626801"
       gradientUnits="userSpaceOnUse"
       id="radialGradient4196"
       xlink:href="#id0" /></defs><g
     transform="translate(-24.4705,-58.2319)"
     id="Camada_x0020_1"><metadata
       id="CorelCorpID_0Corel-Layer" /><g
       id="_11752728"><g
         id="g20"><g
           id="g22"><g
             id="g24"><path
               style="fill:#ed1c24;fill-opacity:0.88235294;fill-rule:nonzero"
               d="m 39.2976,156.891 c 5.3885,-7.3871 10.9148,-13.3746 19.8619,-21.3004 9.2031,-7.9045 17.2701,-13.7783 28.7933,-20.8957 12.0274,-7.2324 21.5082,-12.0011 33.7405,-17.0862 12.8869,-5.1915 22.2151,-8.0029 33.2241,-10.2242 -4.8188,5.067 -14.4566,15.2012 -14.4566,15.2012 -7.3639,0.5171 -13.8779,1.789 -23.2726,4.6926 -9.4608,3.0911 -17.0642,6.3008 -27.1278,11.5019 -10.5159,5.591 -18.1982,10.472 -27.4006,17.2605 -9.9214,7.4801 -16.4274,13.3667 -23.3622,20.8503 z"
               class="fil0"
               id="_11749056" /><path
               style="fill:#f7941e;fill-opacity:0.88235294;fill-rule:nonzero"
               d="m 44.4925,150.952 c 4.7368,-5.3671 9.1805,-9.7292 15.6015,-15.2407 9.1353,-7.6464 17.0758,-13.3057 28.3288,-20.105 11.5933,-6.8207 20.6768,-11.2831 32.3339,-15.987 12.1925,-4.7563 20.9675,-7.2813 31.2693,-9.194 -2.8912,3.0402 -8.674,9.1208 -8.6738,9.1205 -8.0757,0.8319 -15.1375,2.39 -25.2274,5.7229 -10.0376,3.4805 -18.0378,6.9975 -28.5342,12.601 -10.7775,5.9159 -18.5846,11.0103 -27.8653,18.0514 -6.9104,5.3457 -11.8127,9.6472 -17.2328,15.0309 z"
               class="fil1"
               id="_188840392" /><path
               style="fill:#fbd115;fill-opacity:0.88235294;fill-rule:nonzero"
               d="m 50.5134,144.894 c 3.2855,-3.1654 6.3915,-5.936 10.2177,-9.1011 9.1595,-7.4315 17.0328,-12.8935 28.1003,-19.3952 11.21,-6.4109 19.9255,-10.5618 31.0336,-14.8652 11.4909,-4.2894 19.7028,-6.5017 29.2698,-8.0675 -0.9638,1.0134 -2.8914,3.0402 -2.8914,3.0402 -8.8093,1.1819 -16.4395,3.0546 -27.2271,6.8495 -10.5881,3.8864 -18.9545,7.7147 -29.8341,13.7225 -10.9589,6.2185 -18.8295,11.5075 -28.0942,18.7614 -3.9409,3.14 -7.1487,5.8914 -10.5746,9.0554 z"
               class="fil2"
               id="_186378600" /></g></g></g><path
         style="fill:none"
         d="m 39.2976,156.891 c 5.7731,-7.088 13.1535,-14.2471 21.6119,-21.0753 8.4249,-6.8012 17.9617,-13.3026 28.0974,-19.0781 10.1509,-5.7842 20.4933,-10.6144 30.4337,-14.294 9.9458,-3.6815 19.561,-6.2481 28.2485,-7.4585"
         class="fil3"
         id="_11752392" /><g
         id="g30"><g
           id="g32"><g
             id="g34"><path
               style="fill:#ed1c24;fill-opacity:0.88235294;fill-rule:nonzero"
               d="m 145.107,201.214 c -9.0917,-0.973 -17.0408,-2.7658 -28.3778,-6.5506 -11.4474,-4.0181 -20.567,-8.0674 -32.4928,-14.4884 -12.2765,-6.7988 -21.1477,-12.6265 -31.667,-20.6765 -10.9399,-8.565 -18.0382,-15.2371 -25.4668,-23.6609 6.7976,1.6397 20.393,4.9192 20.393,4.9192 4.1296,6.1185 8.4881,11.1242 15.7002,17.8081 7.4046,6.6459 13.9909,11.6293 23.5245,17.7421 10.1023,6.3127 18.166,10.5235 28.6489,15.1 11.4376,4.8518 19.7902,7.5431 29.7378,9.807 z"
               class="fil0"
               id="_188841424" /><path
               style="fill:#f7941e;fill-opacity:0.88235294;fill-rule:nonzero"
               d="m 137.366,199.684 c -7.013,-1.4173 -13.0194,-3.0871 -20.9993,-5.8906 -11.1941,-4.0905 -20.057,-8.1337 -31.576,-14.4816 -11.7042,-6.6297 -20.1091,-12.2644 -30.0119,-20.008 -10.2146,-8.1798 -16.7906,-14.5189 -23.5971,-22.4831 4.0785,0.9838 12.2358,2.9516 12.2356,2.9516 4.7577,6.5771 9.6388,11.9149 17.5699,18.9859 8.0337,6.953 15.0778,12.1221 25.1797,18.4106 10.5143,6.377 18.8253,10.5886 29.5659,15.107 8.0839,3.311 14.2611,5.4062 21.6332,7.4082 z"
               class="fil1"
               id="_206699112" /><path
               style="fill:#fbd115;fill-opacity:0.88235294;fill-rule:nonzero"
               d="m 129.109,197.499 c -4.3855,-1.2633 -8.3351,-2.5665 -12.9908,-4.2981 -11.0167,-4.2174 -19.6814,-8.3038 -30.8467,-14.6384 -11.1591,-6.5036 -19.1076,-11.9736 -28.3905,-19.443 -9.4608,-7.8073 -15.4817,-13.8118 -21.6216,-21.3146 1.3595,0.328 4.0786,0.984 4.0786,0.984 5.4284,7.0382 10.8649,12.7094 19.5454,20.1545 8.6585,7.2253 16.1595,12.5584 26.8013,18.9756 10.8659,6.3821 19.3789,10.5527 30.2947,14.95 4.6876,1.8419 8.6785,3.2459 13.1296,4.63 z"
               class="fil2"
               id="_203499608" /></g></g></g><path
         style="fill:none"
         d="m 145.107,201.213 c -9.025,-1.4556 -18.9151,-4.2677 -29.0578,-8.1788 C 105.9468,189.1387 95.548,184.1303 85.4785,178.2402 75.3938,172.3414 66.0394,165.7997 57.8826,159.0308 49.7215,152.2583 42.6911,145.2146 37.2991,138.2962"
         class="fil3"
         id="_206699416" /><path
         style="fill:url(#radialGradient4196)"
         d="m 51.5619,136.937 c 1.0487,6.921 -3.5738,13.3609 -10.3246,14.3839 -6.7509,1.023 -13.0738,-3.7584 -14.1225,-10.6794 -1.0488,-6.921 3.5737,-13.3609 10.3246,-14.3839 6.7509,-1.023 13.0738,3.7584 14.1225,10.6794 z"
         class="fil4"
         id="_188840176" /><g
         id="g41"><g
           id="g43"><g
             id="g45"><path
               style="fill:#ed1c24;fill-opacity:0.88235294;fill-rule:nonzero"
               d="m 132.768,85.5865 c 3.8246,8.1746 6.3504,15.8691 8.8674,27.5571 2.3876,12.008 3.5208,22.073 4.0152,35.8599 0.3449,14.3388 -0.2226,25.2067 -1.9378,38.6883 -1.9715,14.1971 -4.2719,23.9272 -7.9741,34.8266 -1.9707,-6.7266 -5.912,-20.1802 -5.912,-20.1802 3.3281,-6.8178 5.5407,-13.2656 7.751,-23.1983 2.0602,-10.0412 3.0471,-18.4849 3.5005,-30.0941 0.3315,-12.195 -0.1259,-21.4438 -1.5403,-32.9634 -1.6558,-12.3587 -3.6187,-20.8956 -6.7699,-30.4959 z"
               class="fil0"
               id="_201969216" /><path
               style="fill:#f7941e;fill-opacity:0.88235294;fill-rule:nonzero"
               d="m 135.438,92.9957 c 2.3623,6.6766 3.9889,12.6499 5.6365,20.9347 2.1968,11.8359 3.204,21.6797 3.5564,35.0826 0.2003,13.754 -0.4347,24.116 -2.1932,36.9005 -2.0008,13.3566 -4.2707,22.4533 -7.8807,32.5688 -1.1824,-4.0361 -3.5472,-12.108 -3.5472,-12.108 3.4162,-7.6014 5.6604,-14.6887 7.8443,-25.4561 2.0101,-10.746 2.9283,-19.692 3.2452,-31.882 0.1797,-12.575 -0.4032,-22.0407 -1.9991,-33.7406 -1.2683,-8.6522 -2.6175,-15.001 -4.6622,-22.2999 z"
               class="fil1"
               id="_203009568" /><path
               style="fill:#fbd115;fill-opacity:1;fill-rule:nonzero"
               d="m 137.796,101.235 c 1.1405,4.3619 2.0234,8.3787 2.8967,13.2296 1.9967,11.7621 2.8666,21.4557 3.0517,34.5566 0.0329,13.218 -0.69,23.0965 -2.521,35.2 -2.0559,12.5002 -4.3103,20.9315 -7.8492,30.225 -0.3941,-1.3454 -1.1825,-4.0361 -1.1825,-4.0358 3.4869,-8.43 5.7429,-16.174 7.8759,-27.7999 1.9331,-11.4314 2.7627,-20.8585 2.9174,-33.5825 0.007,-12.8733 -0.7136,-22.4892 -2.5037,-34.2666 -0.7958,-4.9406 -1.6146,-9.042 -2.6853,-13.5264 z"
               class="fil2"
               id="_206669992" /></g></g></g><path
         style="fill:none"
         d="m 132.768,85.5865 c 3.3713,8.3697 6.0156,18.2662 7.8188,29.0265 1.8041,10.7666 2.7645,22.4604 2.7778,34.4116 0.0132,11.9332 -0.9249,23.6302 -2.7192,34.3913 -1.7994,10.7919 -4.4583,20.6739 -7.8625,29.0124"
         class="fil3"
         id="_188840296" /><path
         style="fill:url(#id1)"
         d="m 144.415,208.558 c 1.0487,6.921 -3.5738,13.361 -10.3247,14.3839 -6.7509,1.023 -13.0738,-3.7583 -14.1225,-10.6794 -1.0487,-6.921 3.5738,-13.3609 10.3247,-14.3839 6.7508,-1.0229 13.0737,3.7584 14.1225,10.6794 z"
         class="fil5"
         id="_188840872" /><path
         style="fill:url(#id2)"
         d="m 158.467,94.6534 c 1.0488,6.9211 -3.5737,13.361 -10.3246,14.3839 -6.7509,1.023 -13.0738,-3.7583 -14.1225,-10.6794 -1.0487,-6.921 3.5738,-13.3609 10.3247,-14.3839 6.7508,-1.0229 13.0737,3.7584 14.1224,10.6794 z"
         class="fil6"
         id="_206670272" /><g
         style="fill:#fbd115;fill-opacity:1"
         id="g53"><path
           style="fill:#fbd115;fill-opacity:1;fill-rule:nonzero"
           d="m 153.16,93.1304 0.1662,2.5344 -0.0658,0.0033 -0.0651,-10e-5 -0.0643,-0.0032 -0.0636,-0.0065 -0.0626,-0.0095 -0.0617,-0.0125 -0.0606,-0.0155 -0.0594,-0.0184 -0.0582,-0.0211 -0.0568,-0.0239 -0.0554,-0.0265 -0.054,-0.029 -0.0523,-0.0316 -0.0506,-0.034 -0.049,-0.0364 -0.047,-0.0386 -0.0451,-0.0409 -0.0432,-0.0429 -0.041,-0.0451 -0.0388,-0.047 -0.0366,-0.0489 -0.0342,-0.0508 -0.0317,-0.0525 -0.0292,-0.0542 -0.0267,-0.0558 -0.0239,-0.0574 -0.0211,-0.0588 -0.0183,-0.0603 -0.0153,-0.0615 -0.0122,-0.0628 -0.009,-0.064 -0.006,-0.0651 -0.003,-0.0653 7e-4,-0.0647 0.004,-0.0641 0.007,-0.0632 0.0102,-0.0624 0.0133,-0.0614 0.0162,-0.0604 0.0191,-0.0593 0.0218,-0.058 0.0246,-0.0568 0.0273,-0.0553 0.0298,-0.0539 0.0323,-0.0524 0.0347,-0.0507 0.0371,-0.049 0.0393,-0.0472 0.0416,-0.0453 0.0437,-0.0433 0.0457,-0.0412 0.0477,-0.0391 0.0496,-0.0368 0.0514,-0.0346 0.0532,-0.0321 0.0548,-0.0296 0.0564,-0.027 0.058,-0.0244 0.0594,-0.0216 0.0608,-0.0188 0.0621,-0.0158 0.0633,-0.0129 0.0645,-0.0097 0.0655,-0.0066 z m 18.7765,1.6841 -0.8294,2.4126 h 1e-4 l -0.4371,-0.1403 -0.4452,-0.1348 -0.4533,-0.1291 -0.4616,-0.1235 -0.4695,-0.1178 -0.4777,-0.112 -0.4857,-0.1064 -0.4933,-0.1005 -0.5014,-0.0946 -0.5091,-0.0889 -0.5168,-0.0829 -0.5245,-0.077 -0.5321,-0.071 -0.5397,-0.0651 -0.5471,-0.0591 -0.5545,-0.053 -0.5619,-0.0469 -0.5692,-0.0409 -0.5765,-0.0347 -0.5835,-0.0286 -0.5908,-0.0224 -0.5978,-0.0162 -0.6048,-0.01 -0.6118,-0.0038 -0.6186,0.0026 -0.6254,0.0087 -0.632,0.0151 -0.639,0.0215 -0.6454,0.0276 -0.652,0.0342 -0.6586,0.0406 -0.6651,0.0469 -0.1662,-2.5344 0.6879,-0.0485 0.6818,-0.042 0.676,-0.0354 0.6696,-0.0288 0.6634,-0.0223 0.6574,-0.0157 0.6508,-0.0091 0.6446,-0.0026 0.6382,0.004 0.6316,0.0104 0.6252,0.017 0.6188,0.0234 0.6123,0.03 0.6055,0.0365 0.5988,0.0429 0.5921,0.0495 0.5855,0.056 0.5785,0.0625 0.5717,0.0689 0.5649,0.0754 0.5577,0.082 0.551,0.0883 0.5439,0.0949 0.5366,0.1014 0.5297,0.1079 0.5223,0.1144 0.5151,0.1208 0.5079,0.1274 0.5006,0.1339 0.4933,0.1405 0.4856,0.147 0.4781,0.1535 z m 11.1468,8.4051 -2.231,1.2644 v 1e-4 l -0.1779,-0.3044 -0.1862,-0.2993 -0.1943,-0.2944 -0.2025,-0.2892 -0.2106,-0.2843 -0.219,-0.2794 -0.227,-0.2747 -0.2351,-0.2696 -0.2433,-0.2646 -0.2516,-0.2598 -0.2598,-0.2549 -0.268,-0.25 -0.2762,-0.2452 -0.2843,-0.2401 -0.2926,-0.2352 -0.3007,-0.2303 -0.309,-0.2253 -0.3171,-0.2202 -0.3254,-0.2152 -0.3335,-0.2101 -0.3416,-0.205 -0.3497,-0.1998 -0.358,-0.1945 -0.3661,-0.1895 -0.3741,-0.1842 -0.3821,-0.1788 -0.3901,-0.1734 -0.398,-0.1681 -0.4059,-0.1626 -0.4141,-0.1572 -0.4217,-0.1516 -0.4297,-0.1461 0.8294,-2.4126 0.4709,0.1601 0.4637,0.1668 0.4565,0.1732 0.4493,0.18 0.4418,0.1865 0.4343,0.1932 0.4269,0.1998 0.4193,0.2064 0.4115,0.2129 0.404,0.2197 0.3963,0.2264 0.3884,0.233 0.3805,0.2397 0.3724,0.2464 0.3643,0.253 0.3562,0.2597 0.3479,0.2663 0.3396,0.273 0.3313,0.2799 0.3224,0.2862 0.314,0.2928 0.3052,0.2997 0.2964,0.306 0.2875,0.3128 0.2785,0.3192 0.2692,0.3255 0.26,0.332 0.2508,0.3385 0.2413,0.3448 0.2317,0.351 0.2222,0.3571 0.2125,0.3634 z m -10.1385,36.1831 -2.0106,-1.5494 v 0 l 0.9695,-1.2578 0.9306,-1.2506 0.8912,-1.2428 0.8516,-1.2344 0.8112,-1.2253 0.7707,-1.2154 0.7294,-1.2051 0.6881,-1.1938 0.6461,-1.182 0.6038,-1.1695 0.5611,-1.1563 0.5181,-1.1423 0.4746,-1.1275 0.4308,-1.1121 0.3867,-1.0959 0.3424,-1.0791 0.2976,-1.0614 0.2528,-1.043 0.2077,-1.024 0.1625,-1.0042 0.1171,-0.9838 0.0716,-0.9628 0.0263,-0.9412 -0.0194,-0.9192 -0.0649,-0.8969 -0.1104,-0.8744 -0.156,-0.8513 -0.2018,-0.8287 -0.2478,-0.8058 -0.294,-0.7832 -0.3408,-0.7608 -0.3883,-0.7387 2.231,-1.2644 0.4615,0.8779 0.4048,0.9036 0.3482,0.9274 0.2922,0.95 0.2366,0.9715 0.1818,0.9915 0.1276,1.0104 0.0745,1.0283 0.022,1.0456 -0.0295,1.0618 -0.0802,1.0772 -0.1299,1.0922 -0.1791,1.1066 -0.2271,1.1202 -0.2748,1.1338 -0.3216,1.1466 -0.3676,1.1591 -0.4133,1.1711 -0.458,1.1827 -0.5026,1.1939 -0.5463,1.2045 -0.5895,1.2149 -0.6324,1.2247 -0.6745,1.2342 -0.7165,1.243 -0.7576,1.2515 -0.7985,1.2594 -0.8388,1.2669 -0.8788,1.274 -0.9182,1.2804 -0.9572,1.2864 z m -50.0113,41.2178 -1.2694,-2.193 v 0 l 1.9904,-1.1657 1.9661,-1.1784 1.9413,-1.1906 1.9161,-1.2021 1.8902,-1.2131 1.8641,-1.2235 1.8374,-1.233 1.8101,-1.2422 1.7825,-1.2507 1.7545,-1.2585 1.7258,-1.2658 1.6967,-1.2723 1.6672,-1.2785 1.6371,-1.2838 1.6066,-1.2886 1.5757,-1.2927 1.5442,-1.2962 1.5123,-1.2992 1.4799,-1.3015 1.4469,-1.3031 1.4136,-1.3041 1.3798,-1.3045 1.3454,-1.3042 1.3107,-1.3034 1.2754,-1.3019 1.2396,-1.2997 1.2035,-1.2969 1.1667,-1.2935 1.1295,-1.2895 1.092,-1.2846 1.0537,-1.2792 1.0151,-1.2732 2.0106,1.5494 -1.0413,1.306 -1.0795,1.3104 -1.1172,1.3146 -1.1547,1.3181 -1.1915,1.3209 -1.2279,1.3233 -1.2638,1.3251 -1.2994,1.3263 -1.3343,1.327 -1.369,1.327 -1.403,1.3265 -1.4366,1.3253 -1.4699,1.3237 -1.5027,1.3215 -1.5349,1.3186 -1.5666,1.3152 -1.5981,1.3111 -1.629,1.3064 -1.6593,1.3012 -1.6894,1.2955 -1.7189,1.2891 -1.748,1.282 -1.7765,1.2743 -1.8047,1.2663 -1.8323,1.2574 -1.8596,1.248 -1.8863,1.2379 -1.9126,1.2275 -1.9385,1.2163 -1.9639,1.2044 -1.9887,1.192 z m -60.6739,22.7003 -0.3216,-2.518 v 0 l 1.6019,-0.2322 1.6271,-0.2635 1.6515,-0.2945 1.675,-0.3257 1.6978,-0.3566 1.7198,-0.3875 1.7408,-0.4181 1.761,-0.4488 1.7807,-0.4793 1.7991,-0.5096 1.817,-0.54 1.8341,-0.57 1.8501,-0.6002 1.8657,-0.6301 1.8803,-0.6599 1.894,-0.6895 1.907,-0.7192 1.9193,-0.7485 1.9306,-0.7779 1.9412,-0.8071 1.9511,-0.8362 1.96,-0.8651 1.9683,-0.8939 1.9755,-0.9226 1.9823,-0.9512 1.9882,-0.9796 1.9931,-1.0081 1.9974,-1.0361 2.0008,-1.0643 2.0035,-1.0922 2.0054,-1.1201 2.0065,-1.1477 1.2694,2.193 -2.0295,1.1609 -2.0286,1.1331 -2.0267,1.1048 -2.0244,1.0769 -2.0212,1.0485 -2.0171,1.0201 -2.0124,0.9916 -2.0067,0.963 -2.0005,0.9342 -1.9933,0.9053 -1.9854,0.8763 -1.9769,0.8472 -1.9674,0.8179 -1.9572,0.7887 -1.9463,0.7591 -1.9346,0.7296 -1.9222,0.6997 -1.9089,0.6699 -1.8949,0.6401 -1.8803,0.6098 -1.8647,0.5796 -1.8484,0.5494 -1.8315,0.5188 -1.8137,0.4881 -1.7952,0.4576 -1.776,0.4265 -1.7558,0.3955 -1.7352,0.3646 -1.7138,0.3331 -1.6915,0.3017 -1.6687,0.2703 z m -35.7508,-10.2845 2.297,-1.14 -10e-5,-1e-4 0.4003,0.748 0.4444,0.7159 0.4886,0.6848 0.5324,0.6546 0.5764,0.6247 0.6201,0.5953 0.664,0.5662 0.7077,0.5371 0.7512,0.508 0.7945,0.4788 0.8374,0.4494 0.8801,0.4198 0.9221,0.3901 0.9636,0.3599 1.0042,0.3296 1.0444,0.2992 1.0837,0.2684 1.1223,0.2375 1.1601,0.2064 1.197,0.1752 1.2331,0.1441 1.2683,0.1126 1.3028,0.0814 1.3362,0.0499 1.3691,0.0185 1.4009,-0.0129 1.4319,-0.0443 1.462,-0.0757 1.4916,-0.1071 1.5199,-0.1384 1.5476,-0.1696 1.5744,-0.2008 0.3216,2.518 -1.619,0.2064 -1.5938,0.1748 -1.5681,0.1426 -1.5416,0.1107 -1.5144,0.0785 -1.4867,0.0459 -1.4579,0.0135 -1.4289,-0.0193 -1.399,-0.0523 -1.3684,-0.0854 -1.3371,-0.1188 -1.3053,-0.1525 -1.2728,-0.1864 -1.2395,-0.2206 -1.2055,-0.2551 -1.1709,-0.29 -1.1354,-0.3252 -1.0992,-0.3608 -1.0622,-0.3969 -1.0245,-0.4333 -0.9855,-0.4702 -0.9458,-0.5076 -0.9049,-0.5454 -0.8628,-0.5836 -0.8193,-0.6219 -0.7748,-0.6606 -0.7285,-0.6995 -0.6808,-0.7381 -0.6318,-0.7766 -0.5812,-0.8148 -0.5292,-0.8525 -0.4759,-0.8894 z m 0.4476,-18.3119 2.3916,0.874 v 0 l -0.2246,0.6081 -0.2112,0.6028 -0.1979,0.5974 -0.1844,0.5918 -0.171,0.586 -0.1574,0.5802 -0.144,0.5743 -0.1305,0.5683 -0.1171,0.5621 -0.1035,0.5557 -0.0901,0.5495 -0.0767,0.543 -0.0631,0.5363 -0.0498,0.5297 -0.0363,0.5227 -0.0229,0.5159 -0.0096,0.509 0.0038,0.5019 0.0171,0.4949 0.0304,0.4875 0.0437,0.4804 0.057,0.473 0.0702,0.4659 0.0833,0.4584 0.0965,0.4509 0.1098,0.4438 0.1229,0.4364 0.1361,0.429 0.1494,0.4217 0.1626,0.4143 0.1758,0.4071 0.1893,0.3999 -2.297,1.14 -0.2259,-0.4775 -0.2098,-0.4853 -0.1934,-0.4931 -0.1772,-0.5005 -0.1611,-0.5076 -0.1449,-0.5146 -0.129,-0.5212 -0.1131,-0.5281 -0.0971,-0.5344 -0.0814,-0.5403 -0.0658,-0.5466 -0.0503,-0.5526 -0.0348,-0.5583 -0.0195,-0.5637 -0.0044,-0.5693 0.0108,-0.5746 0.0257,-0.5799 0.0407,-0.5851 0.0554,-0.5899 0.0701,-0.5951 0.0847,-0.5998 0.0991,-0.6045 0.1135,-0.6093 0.1279,-0.6137 0.1419,-0.6183 0.1562,-0.6229 0.1702,-0.6272 0.1842,-0.6314 0.198,-0.6356 0.2119,-0.6398 0.2256,-0.6438 z m 14.5864,-22.4218 1.9064,1.674 -0.6402,0.7246 -0.6277,0.7225 -0.615,0.7203 -0.6024,0.718 -0.5898,0.7155 -0.5771,0.7131 -0.5643,0.7104 -0.5516,0.7077 -0.5389,0.705 -0.526,0.7019 -0.5131,0.6989 -0.5003,0.6957 -0.4873,0.6926 -0.4744,0.6891 -0.4614,0.6858 -0.4485,0.6821 -0.4354,0.6785 -0.4223,0.6746 -0.4092,0.6709 -0.3961,0.6667 -0.383,0.6627 -0.3697,0.6584 -0.3566,0.6541 -0.3433,0.6497 -0.3302,0.6451 -0.3167,0.6402 -0.3034,0.6356 -0.2902,0.6309 -0.2769,0.6255 -0.2634,0.6206 -0.2501,0.6152 -0.2367,0.6099 -2.3916,-0.874 0.2515,-0.6483 0.2653,-0.6524 0.2786,-0.6564 0.2923,-0.6605 0.3056,-0.6643 0.319,-0.6682 0.3325,-0.6722 0.3458,-0.6755 0.3589,-0.6793 0.3722,-0.6829 0.3855,-0.6864 0.3986,-0.6897 0.4117,-0.6931 0.4248,-0.6963 0.4379,-0.6996 0.4508,-0.7025 0.4639,-0.7057 0.4768,-0.7084 0.4896,-0.7113 0.5025,-0.7142 0.5155,-0.7169 0.5281,-0.7193 0.541,-0.7219 0.5537,-0.7244 0.5664,-0.7267 0.5791,-0.729 0.5917,-0.7311 0.6044,-0.7333 0.6168,-0.7352 0.6296,-0.7371 0.6419,-0.7389 z m 1.9064,1.674 -1.9064,-1.674 0.0451,-0.0481 0.0469,-0.0453 0.0487,-0.0426 0.0503,-0.0397 0.0519,-0.0369 0.0533,-0.0341 0.0545,-0.0312 0.0558,-0.0285 0.0568,-0.0256 0.0578,-0.0227 0.0586,-0.0199 0.0594,-0.017 0.0599,-0.0142 0.0605,-0.0112 0.0609,-0.008 0.0611,-0.005 0.0614,-0.003 0.0613,3e-4 0.0613,0.003 0.0612,0.006 0.0608,0.009 0.0604,0.012 0.0599,0.015 0.0593,0.0179 0.0586,0.0209 0.0577,0.0238 0.0567,0.0269 0.0556,0.0298 0.0544,0.0328 0.0531,0.0358 0.0517,0.0388 0.0502,0.0418 0.0479,0.0443 0.0452,0.0462 0.0422,0.048 0.0395,0.0496 0.0366,0.0512 0.0337,0.0526 0.0309,0.0539 0.0281,0.0551 0.0251,0.0563 0.0223,0.0572 0.0194,0.058 0.0165,0.0589 0.0136,0.0595 0.0107,0.06 0.0079,0.0604 0.0048,0.0607 0.002,0.061 -9e-4,0.061 -0.0039,0.0609 -0.0068,0.0609 -0.0098,0.0605 -0.0127,0.0602 -0.0157,0.0597 -0.0187,0.0592 -0.0216,0.0584 -0.0246,0.0576 -0.0275,0.0566 -0.0306,0.0556 -0.0336,0.0545 -0.0365,0.0531 -0.0396,0.0518 z"
           class="fil7"
           id="_11749296" /></g><g
         style="fill:#fbd115;fill-opacity:1"
         id="g56"><path
           style="fill:#fbd115;fill-opacity:1;fill-rule:nonzero"
           id="path58"
           d="m 131.087,219.201 -2.2532,-1.1732 0.0313,-0.0579 0.0338,-0.0556 0.0361,-0.0534 0.0385,-0.051 0.0406,-0.0486 0.0427,-0.0462 0.0446,-0.0437 0.0465,-0.0413 0.0483,-0.0388 0.0498,-0.0362 0.0514,-0.0336 0.0529,-0.031 0.0541,-0.0283 0.0553,-0.0257 0.0565,-0.0229 0.0574,-0.0202 0.0583,-0.0174 0.0591,-0.0145 0.0598,-0.0117 0.0603,-0.009 0.0608,-0.006 0.0611,-0.003 0.0614,2e-4 0.0615,0.003 0.0616,0.006 0.0614,0.009 0.0613,0.0124 0.061,0.0157 0.0606,0.0188 0.06,0.0221 0.0595,0.0254 0.0587,0.0287 0.0572,0.0317 0.055,0.0342 0.0527,0.0366 0.0504,0.0389 0.048,0.0411 0.0457,0.0432 0.0432,0.0452 0.0408,0.047 0.0383,0.0488 0.0357,0.0505 0.0333,0.052 0.0306,0.0535 0.028,0.0548 0.0254,0.056 0.0226,0.0571 0.02,0.0581 0.0171,0.059 0.0144,0.0599 0.0116,0.0604 0.009,0.0611 0.006,0.0615 0.003,0.0619 -1e-4,0.0621 -0.003,0.0623 -0.006,0.0623 -0.009,0.0622 -0.0123,0.062 -0.0155,0.0617 -0.0186,0.0613 -0.0219,0.0608 -0.025,0.0602 -0.0284,0.0594 z m -11.0149,14.7717 -1.6042,-1.985 h -1e-4 l 0.3423,-0.2884 0.3415,-0.2981 0.3408,-0.308 0.3401,-0.3175 0.3391,-0.3273 0.3384,-0.3371 0.3375,-0.3465 0.3362,-0.3562 0.3354,-0.366 0.3344,-0.3755 0.333,-0.3851 0.332,-0.3946 0.3307,-0.4042 0.3294,-0.4136 0.3281,-0.4232 0.3266,-0.4325 0.3252,-0.4422 0.3238,-0.4515 0.3223,-0.4608 0.3206,-0.4702 0.319,-0.4795 0.3173,-0.4888 0.3157,-0.4982 0.314,-0.5073 0.312,-0.5164 0.3102,-0.5258 0.3084,-0.5348 0.3064,-0.544 0.3045,-0.5532 0.3024,-0.5621 0.3004,-0.5711 0.2983,-0.5802 2.2532,1.1732 -0.3091,0.6012 -0.3116,0.5925 -0.314,0.5837 -0.3165,0.5748 -0.3188,0.5662 -0.3214,0.5574 -0.3236,0.5484 -0.326,0.5396 -0.3284,0.5307 -0.3305,0.5216 -0.3329,0.5128 -0.3352,0.5037 -0.3374,0.4946 -0.3395,0.4858 -0.3418,0.4765 -0.3438,0.4674 -0.3462,0.4585 -0.3483,0.4492 -0.3504,0.44 -0.3523,0.4306 -0.3546,0.4216 -0.3566,0.4121 -0.3586,0.4029 -0.3606,0.3934 -0.3628,0.3842 -0.3647,0.3747 -0.3666,0.3651 -0.3687,0.3557 -0.3705,0.3461 -0.3726,0.3366 -0.3745,0.3269 -0.3763,0.3172 z m -12.8999,4.7651 0.1612,-2.5592 h -2e-4 l 0.3509,0.0177 0.3501,0.008 0.3502,-0.002 0.35,-0.0113 0.3496,-0.0208 0.3492,-0.0306 0.3492,-0.0401 0.3492,-0.0497 0.3491,-0.0592 0.3488,-0.0687 0.3488,-0.0783 0.3488,-0.0878 0.3484,-0.0974 0.3487,-0.1071 0.3488,-0.1165 0.3483,-0.1259 0.3484,-0.1358 0.3484,-0.1453 0.3482,-0.1548 0.348,-0.1645 0.3479,-0.174 0.3479,-0.1837 0.3474,-0.1932 0.3471,-0.2028 0.3469,-0.2124 0.3467,-0.222 0.3461,-0.2317 0.3458,-0.2412 0.3453,-0.2507 0.3447,-0.2602 0.3442,-0.2699 0.3436,-0.2793 1.6042,1.985 -0.3782,0.3075 -0.38,0.2979 -0.3821,0.2886 -0.3839,0.2787 -0.3856,0.269 -0.3877,0.2593 -0.3893,0.2494 -0.3911,0.2396 -0.3931,0.2296 -0.3948,0.2194 -0.3963,0.2093 -0.3981,0.1992 -0.3998,0.1889 -0.4016,0.1786 -0.4028,0.1679 -0.4046,0.1576 -0.4063,0.1471 -0.4074,0.1361 -0.4087,0.1255 -0.4106,0.1146 -0.4114,0.1036 -0.4126,0.0927 -0.4138,0.0815 -0.4149,0.0704 -0.4156,0.0591 -0.4166,0.0479 -0.4176,0.0364 -0.4182,0.025 -0.4184,0.0135 -0.4192,0.002 -0.4197,-0.01 -0.4197,-0.0213 h -2e-4 z m -26.0904,-28.6869 2.3646,-0.9216 v 0 l 0.5906,1.5156 0.6046,1.4798 0.6184,1.4433 0.6316,1.406 0.6446,1.3677 0.6572,1.3288 0.6696,1.2892 0.6814,1.2486 0.693,1.2073 0.704,1.1651 0.7148,1.1222 0.725,1.0785 0.735,1.0341 0.7444,0.9889 0.7532,0.9428 0.7617,0.8962 0.7698,0.8487 0.7771,0.8007 0.784,0.7518 0.7904,0.7025 0.7964,0.6526 0.8017,0.6023 0.8065,0.5513 0.811,0.5 0.8149,0.4486 0.8188,0.3966 0.8221,0.3447 0.8256,0.2923 0.8291,0.2401 0.8326,0.1873 0.8366,0.1345 0.8413,0.0812 -0.1612,2.5592 -0.9993,-0.0964 -0.9914,-0.1593 -0.9826,-0.2211 -0.9727,-0.2815 -0.962,-0.3407 -0.9509,-0.3985 -0.9392,-0.455 -0.9271,-0.5102 -0.9148,-0.564 -0.9025,-0.6169 -0.8897,-0.6683 -0.8772,-0.7188 -0.8646,-0.7683 -0.8518,-0.8168 -0.8391,-0.8645 -0.8262,-0.9111 -0.8135,-0.957 -0.8006,-1.002 -0.7876,-1.0463 -0.7746,-1.0899 -0.7614,-1.1325 -0.7482,-1.1746 -0.7346,-1.2157 -0.721,-1.2563 -0.7074,-1.296 -0.6934,-1.3352 -0.6794,-1.3734 -0.665,-1.4111 -0.6504,-1.4478 -0.6358,-1.4841 -0.6208,-1.5194 z m -10.0039,-63.5943 2.534,0.0146 v 1e-4 l -0.0014,2.2607 0.0211,2.2486 0.0437,2.2357 0.0657,2.2221 0.0876,2.2077 0.1092,2.1927 0.1305,2.1768 0.1515,2.1603 0.1724,2.143 0.1928,2.1249 0.2129,2.1063 0.233,2.0866 0.2525,2.0664 0.2721,2.0454 0.2912,2.0238 0.3099,2.0012 0.3285,1.9781 0.3467,1.9539 0.3648,1.9294 0.3826,1.9039 0.3999,1.8778 0.417,1.8508 0.434,1.823 0.4506,1.7948 0.4668,1.7655 0.4828,1.7356 0.4985,1.7049 0.514,1.6735 0.529,1.6413 0.5438,1.6084 0.5584,1.5746 0.5724,1.5403 -2.3646,0.9216 -0.5864,-1.5775 -0.5712,-1.611 -0.5558,-1.6438 -0.5402,-1.6759 -0.5242,-1.7073 -0.5083,-1.7379 -0.4918,-1.768 -0.4752,-1.7973 -0.4584,-1.8258 -0.4412,-1.8538 -0.4238,-1.8808 -0.4063,-1.9074 -0.3884,-1.9331 -0.3702,-1.9582 -0.3519,-1.9825 -0.3331,-2.0061 -0.3143,-2.029 -0.295,-2.0512 -0.2757,-2.0728 -0.2559,-2.0934 -0.236,-2.1136 -0.2157,-2.1329 -0.1952,-2.1515 -0.1744,-2.1694 -0.1533,-2.1867 -0.1321,-2.203 -0.1106,-2.2189 -0.0886,-2.2339 -0.0665,-2.2483 -0.0441,-2.2617 -0.0215,-2.2748 0.0014,-2.2869 z m 10.5978,-62.1763 2.344,0.974 v 0 l -0.5809,1.4665 -0.5676,1.5022 -0.5538,1.5371 -0.5397,1.5715 -0.5252,1.605 -0.5106,1.6379 -0.4956,1.6701 -0.4801,1.7016 -0.4645,1.7326 -0.4487,1.7625 -0.4323,1.7921 -0.4157,1.8209 -0.399,1.849 -0.3819,1.8764 -0.3644,1.9031 -0.3466,1.9292 -0.3286,1.9546 -0.3104,1.9792 -0.2918,2.0033 -0.2728,2.0267 -0.2537,2.0492 -0.2342,2.0714 -0.2145,2.0927 -0.1945,2.1132 -0.1742,2.1333 -0.1536,2.1525 -0.1327,2.1712 -0.1114,2.1892 -0.0902,2.2065 -0.0682,2.2229 -0.0464,2.239 -0.024,2.2543 -2.534,-0.0146 0.0244,-2.2803 0.0468,-2.265 0.0692,-2.2491 0.0912,-2.2325 0.1128,-2.2154 0.1343,-2.1976 0.1554,-2.1789 0.1764,-2.1599 0.1969,-2.14 0.2173,-2.1195 0.2372,-2.0984 0.2571,-2.0766 0.2766,-2.0543 0.2958,-2.0311 0.3148,-2.0074 0.3334,-1.983 0.3518,-1.958 0.37,-1.9325 0.3879,-1.906 0.4054,-1.879 0.4227,-1.8513 0.4399,-1.8233 0.4567,-1.7943 0.4731,-1.7648 0.4895,-1.7346 0.5056,-1.7037 0.5212,-1.6723 0.5368,-1.6402 0.5521,-1.6075 0.5672,-1.5741 0.5818,-1.5402 z m 26.0001,-26.0484 -0.0204,2.5644 h -1e-4 l -0.8267,0.0192 -0.8219,0.0706 -0.8173,0.1216 -0.8134,0.1724 -0.8098,0.2227 -0.8065,0.273 -0.803,0.323 -0.7997,0.3731 -0.7962,0.4229 -0.7924,0.4724 -0.7881,0.5218 -0.7836,0.5709 -0.7783,0.6196 -0.773,0.668 -0.767,0.7157 -0.7603,0.763 -0.7533,0.8099 -0.7457,0.856 -0.7377,0.9016 -0.7292,0.9465 -0.7202,0.9908 -0.7108,1.0345 -0.701,1.0773 -0.6906,1.1196 -0.6801,1.161 -0.6689,1.202 -0.6575,1.242 -0.6457,1.2814 -0.6336,1.3202 -0.621,1.358 -0.6081,1.3953 -0.595,1.432 -2.344,-0.974 0.6116,-1.4722 0.6263,-1.4369 0.6406,-1.4008 0.6546,-1.364 0.6685,-1.3268 0.6823,-1.2888 0.6959,-1.2502 0.7091,-1.2108 0.7224,-1.171 0.7354,-1.1303 0.7484,-1.0891 0.7612,-1.0472 0.7738,-1.0045 0.7865,-0.9612 0.7991,-0.9172 0.8115,-0.8723 0.8239,-0.8268 0.8362,-0.7805 0.8486,-0.7332 0.8609,-0.6852 0.8732,-0.6361 0.8851,-0.586 0.8972,-0.535 0.909,-0.4827 0.9205,-0.4293 0.9316,-0.3748 0.9423,-0.3188 0.9522,-0.2619 0.9616,-0.2036 0.9699,-0.1444 0.9773,-0.084 0.9835,-0.0228 z m 15.6071,8.4533 -1.8946,1.7028 v 0 l -0.4138,-0.4632 -0.4156,-0.449 -0.4173,-0.4345 -0.4189,-0.42 -0.4204,-0.4056 -0.4218,-0.391 -0.4232,-0.3765 -0.4244,-0.3618 -0.4255,-0.3472 -0.4266,-0.3326 -0.4278,-0.318 -0.4284,-0.3033 -0.4292,-0.2884 -0.4301,-0.2739 -0.4306,-0.2592 -0.4311,-0.2443 -0.4318,-0.2298 -0.4323,-0.2151 -0.4324,-0.2004 -0.4329,-0.1857 -0.4334,-0.1713 -0.4334,-0.1565 -0.4338,-0.1419 -0.434,-0.1274 -0.4343,-0.1128 -0.4346,-0.0983 -0.4348,-0.0837 -0.4353,-0.0692 -0.4356,-0.0546 -0.4361,-0.0401 -0.4364,-0.0256 -0.4371,-0.0108 0.0204,-2.5644 0.5209,0.013 0.52,0.0304 0.5189,0.0477 0.5176,0.065 0.5161,0.082 0.5146,0.0991 0.5128,0.1159 0.5109,0.1328 0.5088,0.1492 0.5068,0.1659 0.5044,0.1821 0.502,0.1983 0.4997,0.2143 0.4972,0.2304 0.4943,0.2461 0.4918,0.2616 0.4891,0.2773 0.4862,0.2926 0.4835,0.3079 0.4806,0.323 0.4776,0.3381 0.4746,0.3528 0.4718,0.3678 0.4687,0.3824 0.4656,0.397 0.4626,0.4115 0.4596,0.426 0.4564,0.4402 0.4533,0.4546 0.4501,0.4687 0.447,0.4828 z m 12.3892,23.0052 -2.3874,0.8592 -0.3183,-0.8937 -0.3225,-0.8815 -0.3264,-0.8692 -0.3306,-0.8568 -0.3344,-0.8444 -0.3383,-0.8318 -0.3421,-0.8193 -0.3458,-0.8066 -0.3496,-0.7938 -0.3531,-0.7811 -0.3567,-0.768 -0.3602,-0.7551 -0.3636,-0.7422 -0.3668,-0.729 -0.3702,-0.7157 -0.3733,-0.7025 -0.3764,-0.6889 -0.3796,-0.6756 -0.3825,-0.6623 -0.3853,-0.6486 -0.3881,-0.6348 -0.3909,-0.6211 -0.3936,-0.6073 -0.3961,-0.5934 -0.3987,-0.5795 -0.401,-0.5655 -0.4034,-0.5512 -0.4057,-0.5372 -0.4078,-0.523 -0.4098,-0.5085 -0.4118,-0.4942 -0.4138,-0.4798 1.8946,-1.7028 0.4424,0.5128 0.4392,0.527 0.4358,0.5409 0.4326,0.5548 0.4293,0.5684 0.426,0.5822 0.4226,0.5959 0.4193,0.6093 0.4157,0.6228 0.4124,0.6363 0.4089,0.6497 0.4053,0.663 0.4017,0.6762 0.3981,0.6891 0.3944,0.7022 0.391,0.7155 0.3869,0.7283 0.3834,0.7411 0.3794,0.754 0.3756,0.7666 0.3718,0.7793 0.3677,0.792 0.3637,0.8045 0.3598,0.817 0.3556,0.8294 0.3515,0.8415 0.3473,0.854 0.343,0.8662 0.3388,0.8782 0.3344,0.8904 0.3301,0.9023 z m -2.3874,0.8592 2.3874,-0.8592 0.0203,0.0627 0.0169,0.063 0.0137,0.0632 0.0104,0.0633 0.007,0.0632 0.004,0.0632 10e-4,0.0629 -0.002,0.0625 -0.005,0.0621 -0.008,0.0616 -0.0109,0.0609 -0.0139,0.0602 -0.0166,0.0594 -0.0194,0.0584 -0.0221,0.0573 -0.0248,0.0562 -0.0274,0.0549 -0.03,0.0536 -0.0325,0.0521 -0.0349,0.0505 -0.0374,0.0489 -0.0398,0.047 -0.0421,0.0452 -0.0443,0.0433 -0.0467,0.0411 -0.0487,0.039 -0.051,0.0366 -0.053,0.0343 -0.055,0.0318 -0.0571,0.0291 -0.0589,0.0265 -0.0609,0.0237 -0.062,0.0205 -0.0622,0.0172 -0.0625,0.0138 -0.0625,0.0105 -0.0625,0.0073 -0.0623,0.0041 -0.0622,0.001 -0.0618,-0.0021 -0.0614,-0.0052 -0.0608,-0.0082 -0.0602,-0.0111 -0.0595,-0.014 -0.0586,-0.0168 -0.0577,-0.0196 -0.0567,-0.0224 -0.0555,-0.0251 -0.0543,-0.0277 -0.0529,-0.0304 -0.0515,-0.0328 -0.0499,-0.0354 -0.0483,-0.0379 -0.0465,-0.0402 -0.0447,-0.0426 -0.0427,-0.0449 -0.0406,-0.0472 -0.0385,-0.0494 -0.0362,-0.0515 -0.0339,-0.0537 -0.0314,-0.0557 -0.0288,-0.0577 -0.0262,-0.0597 -0.0234,-0.0616 z"
           class="fil7" /></g><g
         style="fill:#fbd115;fill-opacity:1"
         id="g60"><path
           style="fill:#fbd115;fill-opacity:1;fill-rule:nonzero"
           id="path62"
           d="m 32.3452,133.58 2.1344,-1.3774 0.0348,0.0559 0.0316,0.0568 0.0285,0.0579 0.0253,0.0586 0.0221,0.0594 0.019,0.0599 0.0159,0.0605 0.0129,0.0608 0.0098,0.0611 0.0068,0.0613 0.0037,0.0613 8e-4,0.0612 -0.0021,0.0611 -0.0051,0.0608 -0.008,0.0604 -0.0109,0.0599 -0.0138,0.0593 -0.0166,0.0586 -0.0194,0.0577 -0.0222,0.0568 -0.025,0.0557 -0.0277,0.0545 -0.0305,0.0533 -0.0332,0.0519 -0.0358,0.0504 -0.0385,0.0488 -0.0412,0.0471 -0.0438,0.0452 -0.0463,0.0433 -0.0489,0.0413 -0.0515,0.0391 -0.054,0.0368 -0.0558,0.034 -0.0569,0.0309 -0.0579,0.0277 -0.0588,0.0245 -0.0594,0.0214 -0.0602,0.0183 -0.0606,0.0152 -0.0611,0.0121 -0.0614,0.009 -0.0615,0.006 -0.0617,0.003 -0.0616,1e-4 -0.0614,-0.003 -0.0613,-0.006 -0.0608,-0.009 -0.0604,-0.0115 -0.0598,-0.0142 -0.059,-0.0172 -0.0583,-0.0199 -0.0574,-0.0226 -0.0563,-0.0254 -0.0552,-0.0282 -0.0539,-0.0308 -0.0526,-0.0335 -0.051,-0.0362 -0.0495,-0.0388 -0.0478,-0.0414 -0.046,-0.044 -0.044,-0.0465 -0.042,-0.0491 -0.0399,-0.0515 -0.0376,-0.0541 z m -7.404,-16.5948 2.5102,-0.457 v 0 l 0.0886,0.4359 0.0971,0.4401 0.1054,0.4441 0.114,0.4477 0.1225,0.4517 0.1311,0.4556 0.1394,0.4595 0.1479,0.4629 0.1565,0.4665 0.165,0.4702 0.1735,0.4739 0.1819,0.4771 0.1904,0.4807 0.1988,0.4839 0.2074,0.4873 0.2157,0.4906 0.2242,0.4937 0.2327,0.4968 0.2411,0.5001 0.2495,0.503 0.2578,0.5059 0.2663,0.5089 0.2747,0.5117 0.283,0.5146 0.2914,0.5174 0.2997,0.5201 0.3081,0.5227 0.3163,0.5254 0.3247,0.5278 0.3329,0.5305 0.3412,0.5329 0.3494,0.5352 -2.1344,1.3774 -0.3618,-0.5542 -0.3536,-0.5523 -0.3453,-0.5501 -0.3371,-0.5482 -0.3289,-0.5462 -0.3205,-0.5439 -0.3123,-0.5419 -0.304,-0.5398 -0.2956,-0.5374 -0.2873,-0.5353 -0.2789,-0.5331 -0.2706,-0.5307 -0.2619,-0.5284 -0.2537,-0.5259 -0.2451,-0.5236 -0.2368,-0.5213 -0.2281,-0.5186 -0.2196,-0.5161 -0.2112,-0.5139 -0.2024,-0.5111 -0.1939,-0.5085 -0.1851,-0.5059 -0.1766,-0.5032 -0.1679,-0.5007 -0.1591,-0.4979 -0.1504,-0.4951 -0.1415,-0.4922 -0.1329,-0.4897 -0.1238,-0.4869 -0.115,-0.4837 -0.1061,-0.4809 z m 1.7916,-13.4579 2.2106,1.3 v -10e-5 l -0.1705,0.2987 -0.1625,0.303 -0.1545,0.3071 -0.1466,0.3115 -0.1387,0.3158 -0.1307,0.32 -0.1229,0.3245 -0.1151,0.3287 -0.107,0.3329 -0.0992,0.3375 -0.0912,0.3418 -0.0834,0.3462 -0.0754,0.3506 -0.0675,0.3549 -0.0595,0.3595 -0.0516,0.3637 -0.0434,0.3681 -0.0355,0.3726 -0.0274,0.3768 -0.0193,0.3812 -0.0111,0.3857 -0.0031,0.39 0.0052,0.3942 0.0133,0.3984 0.0217,0.4028 0.0298,0.4069 0.0381,0.4111 0.0465,0.4152 0.0548,0.4193 0.0632,0.4235 0.0715,0.4274 0.08,0.4314 -2.5102,0.457 -0.088,-0.4746 -0.0789,-0.4714 -0.07,-0.4685 -0.0608,-0.4655 -0.0517,-0.4624 -0.0427,-0.4593 -0.0334,-0.4561 -0.0243,-0.4528 -0.0151,-0.4498 -0.0058,-0.4464 0.0035,-0.443 0.0127,-0.4395 0.0221,-0.4362 0.0314,-0.4326 0.0409,-0.429 0.0502,-0.4255 0.0598,-0.4217 0.0691,-0.4177 0.0787,-0.4141 0.0882,-0.41 0.0978,-0.4062 0.1074,-0.4018 0.1168,-0.3977 0.1266,-0.3937 0.1361,-0.3891 0.1457,-0.3845 0.1553,-0.38 0.1649,-0.3754 0.1744,-0.3707 0.1841,-0.3659 0.1935,-0.3608 0.2031,-0.3559 z M 63.1376,94.216 62.801,96.7318 v 0 l -1.574,-0.2107 -1.5483,-0.1806 -1.522,-0.1504 -1.4947,-0.1202 -1.4668,-0.09 -1.4379,-0.0596 -1.4084,-0.0293 -1.3779,0.0011 -1.3468,0.0314 -1.3146,0.0618 -1.2819,0.0922 -1.2482,0.1226 -1.2139,0.1527 -1.1784,0.1829 -1.1426,0.2131 -1.1056,0.243 -1.068,0.2729 -1.0297,0.3027 -0.9906,0.3321 -0.951,0.3614 -0.9105,0.3905 -0.8696,0.4193 -0.8283,0.4479 -0.7864,0.4764 -0.7443,0.5046 -0.7018,0.5327 -0.6594,0.5609 -0.6167,0.5891 -0.574,0.6176 -0.5313,0.6462 -0.4884,0.6755 -0.4456,0.7057 -2.2106,-1.3 0.5296,-0.8385 0.58,-0.8023 0.6291,-0.7654 0.6768,-0.728 0.7229,-0.6907 0.7678,-0.6531 0.8112,-0.6159 0.8535,-0.5786 0.8944,-0.5418 0.9341,-0.5053 0.973,-0.4693 1.0109,-0.4335 1.0478,-0.3982 1.0838,-0.3635 1.1193,-0.3289 1.1538,-0.2949 1.1876,-0.261 1.2208,-0.2277 1.2534,-0.1947 1.2851,-0.1617 1.3164,-0.1292 1.3469,-0.0968 1.3768,-0.0648 1.406,-0.0328 1.4347,-0.0011 1.4626,0.0303 1.4901,0.0618 1.5166,0.093 1.5425,0.124 1.568,0.155 1.5927,0.1858 z m 60.7012,22.702 -1.2644,2.196 v 0 l -2.0048,-1.141 -2.0036,-1.1134 -2.0016,-1.086 -1.9991,-1.0582 -1.9957,-1.0305 -1.9916,-1.0026 -1.9865,-0.9747 -1.9809,-0.9465 -1.9743,-0.9184 -1.9671,-0.8901 -1.9592,-0.8618 -1.9502,-0.8332 -1.9408,-0.8046 -1.9304,-0.7758 -1.9193,-0.7471 -1.9073,-0.7183 -1.8947,-0.6892 -1.8812,-0.6601 -1.8671,-0.6308 -1.8519,-0.6016 -1.8363,-0.5722 -1.8196,-0.5426 -1.8022,-0.5132 -1.7841,-0.4833 -1.7652,-0.4535 -1.7454,-0.4238 -1.7248,-0.3937 -1.7036,-0.3636 -1.6814,-0.3335 -1.6586,-0.3033 -1.6347,-0.273 -1.6102,-0.2426 0.3366,-2.5158 1.6516,0.2488 1.6747,0.2796 1.697,0.3103 1.7188,0.3409 1.7398,0.3714 1.76,0.4017 1.7794,0.432 1.7982,0.4621 1.8165,0.4921 1.8336,0.522 1.8504,0.5518 1.8661,0.5816 1.8813,0.611 1.8957,0.6406 1.9094,0.6699 1.9223,0.6994 1.9345,0.7283 1.9459,0.7575 1.9566,0.7864 1.9666,0.8154 1.9758,0.844 1.9842,0.8728 1.9919,0.9013 1.9989,0.9298 2.0051,0.9581 2.0107,0.9865 2.0152,1.0146 2.0193,1.0427 2.0225,1.0706 2.025,1.0986 2.0266,1.1262 z m 49.9961,41.1952 -2.0198,1.5374 v 0 l -1.0021,-1.2711 -1.0417,-1.2774 -1.0809,-1.2829 -1.1195,-1.2878 -1.1578,-1.2921 -1.1953,-1.2957 -1.2325,-1.2984 -1.2693,-1.3008 -1.3053,-1.3023 -1.341,-1.3034 -1.3761,-1.3036 -1.4107,-1.3033 -1.4449,-1.3022 -1.4785,-1.3007 -1.5115,-1.2984 -1.5443,-1.2955 -1.5763,-1.292 -1.6079,-1.2878 -1.639,-1.283 -1.6695,-1.2776 -1.6997,-1.2716 -1.7292,-1.2649 -1.7582,-1.2576 -1.7869,-1.2496 -1.8149,-1.2411 -1.8425,-1.232 -1.8695,-1.222 -1.8961,-1.2117 -1.9221,-1.2007 -1.9476,-1.1889 -1.9727,-1.1767 -1.9972,-1.1638 1.2644,-2.196 2.0202,1.1772 1.9955,1.1903 1.9704,1.2029 1.9447,1.2147 1.9185,1.2261 1.8921,1.2368 1.8649,1.247 1.8373,1.2563 1.8093,1.2654 1.7808,1.2736 1.7516,1.2813 1.7221,1.2884 1.6921,1.2948 1.6616,1.3008 1.6305,1.306 1.5991,1.3106 1.5671,1.3147 1.5347,1.3182 1.5017,1.3211 1.4683,1.3234 1.4343,1.3251 1.3999,1.3262 1.365,1.3266 1.3297,1.3267 1.2937,1.3258 1.2575,1.3248 1.2205,1.3229 1.1832,1.3205 1.1455,1.3176 1.1071,1.3141 1.0683,1.31 z m 8.9688,36.1032 -2.1358,-1.4192 -1e-4,1e-4 0.4477,-0.7206 0.3978,-0.7428 0.3488,-0.7656 0.3006,-0.7884 0.2529,-0.8115 0.2055,-0.8348 0.1583,-0.858 0.1112,-0.8814 0.0644,-0.9046 0.0174,-0.9275 -0.0295,-0.95 -0.0764,-0.9721 -0.1233,-0.9935 -0.17,-1.0145 -0.2167,-1.0344 -0.2631,-1.0541 -0.3095,-1.0727 -0.3555,-1.0907 -0.4012,-1.1079 -0.4468,-1.1242 -0.4918,-1.14 -0.5365,-1.1547 -0.581,-1.1688 -0.625,-1.1823 -0.6684,-1.1948 -0.7116,-1.2068 -0.7543,-1.2178 -0.7967,-1.2285 -0.8384,-1.238 -0.8797,-1.247 -0.9208,-1.2555 -0.9611,-1.2632 2.0198,-1.5374 0.9883,1.2988 0.9482,1.2929 0.9077,1.2866 0.8666,1.2798 0.8251,1.2723 0.7831,1.2644 0.7408,1.256 0.6976,1.247 0.6542,1.2377 0.6102,1.2278 0.5657,1.2175 0.5206,1.2066 0.475,1.1954 0.4286,1.1837 0.3819,1.1715 0.3343,1.1591 0.2861,1.1459 0.2371,1.1324 0.1874,1.1183 0.1369,1.1039 0.0856,1.0887 0.0333,1.0728 -0.0198,1.0563 -0.074,1.039 -0.129,1.0206 -0.1847,1.0012 -0.2415,0.9806 -0.2987,0.9587 -0.3568,0.9354 -0.415,0.9108 -0.4736,0.8846 -0.5323,0.8568 z m -15.1937,8.618 -0.496,-2.4982 v -1e-4 l 0.5993,-0.1166 0.5887,-0.1249 0.5781,-0.1328 0.5672,-0.141 0.5563,-0.149 0.5454,-0.157 0.5344,-0.1648 0.5232,-0.1728 0.512,-0.1806 0.5007,-0.1882 0.4894,-0.1961 0.4779,-0.2038 0.4663,-0.2112 0.4547,-0.2188 0.443,-0.2264 0.4314,-0.2338 0.4197,-0.2412 0.4078,-0.2485 0.3959,-0.2557 0.3841,-0.2631 0.3721,-0.2701 0.3603,-0.2774 0.3483,-0.2845 0.3364,-0.2916 0.3244,-0.2987 0.3126,-0.3058 0.3005,-0.3128 0.2886,-0.3201 0.2767,-0.327 0.2647,-0.3343 0.2529,-0.3415 0.2409,-0.3488 2.1358,1.4192 -0.2879,0.4166 -0.3015,0.4073 -0.3151,0.3979 -0.3285,0.3884 -0.3418,0.3789 -0.3547,0.3692 -0.3676,0.3598 -0.3802,0.3499 -0.3926,0.3404 -0.4049,0.3307 -0.4169,0.321 -0.4289,0.3115 -0.4407,0.3017 -0.4523,0.2923 -0.4638,0.2825 -0.4749,0.273 -0.4862,0.2636 -0.4974,0.254 -0.5081,0.2446 -0.5191,0.2352 -0.5295,0.2256 -0.5402,0.2165 -0.5507,0.2072 -0.561,0.1978 -0.5712,0.1886 -0.5814,0.1794 -0.5914,0.1702 -0.6015,0.161 -0.6114,0.152 -0.6211,0.1428 -0.6307,0.1337 -0.6405,0.1248 z m -25.126,-0.7889 0.4418,-2.4986 0.8904,0.1607 0.8827,0.1516 0.8749,0.1428 0.8671,0.1339 0.859,0.1249 0.8509,0.116 0.8427,0.1072 0.8345,0.0983 0.8261,0.0894 0.8176,0.0806 0.8091,0.0718 0.8004,0.0631 0.7915,0.0542 0.7829,0.0455 0.7737,0.0367 0.7648,0.0281 0.7555,0.0194 0.7462,0.0106 0.7369,0.002 0.7274,-0.007 0.718,-0.0151 0.7081,-0.0237 0.6984,-0.0323 0.6886,-0.0408 0.6786,-0.0493 0.6685,-0.0577 0.6584,-0.0661 0.6479,-0.0746 0.6376,-0.0829 0.6273,-0.0913 0.6166,-0.0995 0.6059,-0.1077 0.496,2.4982 -0.6467,0.1151 -0.6564,0.1059 -0.6661,0.0969 -0.6756,0.0879 -0.6853,0.0788 -0.6944,0.0697 -0.7039,0.0609 -0.713,0.0517 -0.7222,0.0428 -0.7314,0.0339 -0.7405,0.0247 -0.7492,0.0159 -0.7582,0.007 -0.7669,-0.002 -0.7756,-0.0112 -0.7843,-0.02 -0.7928,-0.0291 -0.8013,-0.0381 -0.8097,-0.0471 -0.8181,-0.056 -0.8262,-0.0651 -0.8343,-0.074 -0.8424,-0.083 -0.8505,-0.0922 -0.8583,-0.1011 -0.8661,-0.11 -0.8739,-0.1192 -0.8816,-0.1283 -0.8891,-0.1373 -0.8965,-0.1462 -0.9041,-0.1554 -0.9114,-0.1645 z m 0.4418,-2.4986 -0.4418,2.4986 -0.0645,-0.0136 -0.0631,-0.0166 -0.0616,-0.0196 -0.0601,-0.0224 -0.0584,-0.0252 -0.0568,-0.0279 -0.055,-0.0305 -0.0532,-0.0329 -0.0514,-0.0353 -0.0494,-0.0376 -0.0474,-0.0399 -0.0454,-0.0419 -0.0432,-0.044 -0.041,-0.0458 -0.0387,-0.0477 -0.0364,-0.0495 -0.0341,-0.0511 -0.0315,-0.0526 -0.0291,-0.0541 -0.0264,-0.0555 -0.0238,-0.0567 -0.0211,-0.058 -0.0182,-0.059 -0.0155,-0.06 -0.0125,-0.0609 -0.01,-0.0617 -0.006,-0.0624 -0.003,-0.063 -2e-4,-0.0636 0.003,-0.064 0.006,-0.0643 0.01,-0.0646 0.013,-0.064 0.0161,-0.0625 0.019,-0.0611 0.022,-0.0594 0.0247,-0.0579 0.0275,-0.0561 0.03,-0.0544 0.0326,-0.0526 0.035,-0.0506 0.0373,-0.0488 0.0396,-0.0467 0.0417,-0.0446 0.0438,-0.0425 0.0457,-0.0403 0.0476,-0.038 0.0494,-0.0357 0.051,-0.0333 0.0527,-0.0308 0.0541,-0.0283 0.0555,-0.0257 0.0569,-0.0231 0.058,-0.0203 0.0592,-0.0176 0.0602,-0.0147 0.0611,-0.0118 0.062,-0.009 0.0628,-0.006 0.0633,-0.003 0.064,5e-4 0.0644,0.004 0.0648,0.007 0.0651,0.0103 z"
           class="fil7" /></g><g
         transform="translate(8.2236869,9.2485619)"
         id="g4188"><text
   xml:space="preserve"
   style="font-style:normal;font-weight:normal;line-height:0%;font-family:sans-serif;letter-spacing:0px;word-spacing:0px;fill:#ffffff;fill-opacity:1;stroke:none;stroke-width:1px;stroke-linecap:butt;stroke-linejoin:miter;stroke-opacity:1"
   x="73.620758"
   y="155.10699"
   id="text4180"><tspan
     id="tspan4182"
     x="73.620758"
     y="155.10699"
     style="font-style:normal;font-variant:normal;font-weight:normal;font-stretch:normal;font-size:50.79999924px;line-height:125%;font-family:Ubuntu;-inkscape-font-specification:'Ubuntu, Normal';text-align:start;writing-mode:lr-tb;text-anchor:start;fill:#ffffff;fill-opacity:1">A</tspan></text>

<text
   xml:space="preserve"
   style="font-style:normal;font-variant:normal;font-weight:normal;font-stretch:normal;line-height:0%;font-family:Ubuntu;-inkscape-font-specification:'Ubuntu, Normal';text-align:start;letter-spacing:0px;word-spacing:0px;writing-mode:lr-tb;text-anchor:start;fill:#000000;fill-opacity:1;stroke:none;stroke-width:1px;stroke-linecap:butt;stroke-linejoin:miter;stroke-opacity:1"
   x="107.25591"
   y="155.10699"
   id="text4184"><tspan
     id="tspan4186"
     x="107.25591"
     y="155.10699"
     style="font-style:normal;font-variant:normal;font-weight:normal;font-stretch:normal;font-size:38.09999847px;line-height:125%;font-family:Ubuntu;-inkscape-font-specification:'Ubuntu, Normal';text-align:start;writing-mode:lr-tb;text-anchor:start;fill:#ffffff;fill-opacity:1">c</tspan></text>

</g></g></g></svg>
